<?xml version="1.0" encoding="UTF-8"?>
<svg id="Layer_1" data-name="Layer 1" xmlns="http://www.w3.org/2000/svg" version="1.1" viewBox="0 0 400 400">
  <defs>
    <style>
      .cls-1 {
        fill: #fff;
        stroke-width: 0px;
      }
    </style>
  </defs>
  <path class="cls-1" d="M108.2,119.6l169.84.12c3.55,0,6.68,2.25,7.82,5.6l47.71,139.62c1.83,5.35-2.18,10.95-7.85,10.95l-265.48.07c-5.7,0-9.68-5.6-7.85-10.98l47.95-139.79c1.15-3.35,4.3-5.6,7.85-5.6M108.81,128.2c-.34,0-.64.22-.73.54l-46.68,137.23c-.17.49.22,1.03.76,1.03l261.93.29c.54,0,.93-.54.73-1.03l-47.07-137.62c-.1-.32-.39-.54-.73-.54l-168.21.1h0Z"/>
  <path class="cls-1" d="M241.71,218.31l4.03,35.24c.22,1.86-1.17,3.52-3.06,3.64l-.95.07c-2.98.17-4.65-1.22-5.01-4.18l-4.3-35.7c-.07-.68-.64-1.2-1.32-1.2l-75.21-.12c-1.17,0-2.18.86-2.32,2.03l-4.99,36.51c-.17,1.35-.95,2.15-2.3,2.4l-4.3.76c-1.39.24-2.01-.34-1.86-1.74l4.01-38.05c.1-1.03-.68-1.93-1.74-1.96-14.01-.34-28.02-.39-42.06-.15-2.76.02-5.55-.17-8.36-.59-2.15-.32-3.3-2.71-2.18-4.57,1.12-1.88,3.01-2.84,5.65-2.86,16.14-.22,32.08-.37,47.8-.49,1.27,0,2.35-.93,2.52-2.2l4.55-33.65c.12-.88-.27-1.32-1.15-1.34l-38.51-.59c-2.84-.02-4.47-1.44-4.89-4.25-.02-.2-.07-.39-.1-.61-.2-1.61,1.08-3.03,2.69-3.06l40.57-.61c1.34-.02,2.49-1.03,2.67-2.37l2.44-17.21c.27-1.96,1.93-3.45,3.91-3.52l1.3-.05c2.35-.07,3.42,1.05,3.23,3.37l-1.49,18.71c-.05.64.46,1.2,1.1,1.2l60.86.24c1.3,0,2.32-1.12,2.18-2.42l-2.08-18.49c-.29-2.64.86-3.67,3.45-3.11.64.15,1.27.34,1.88.61,1.61.68,2.76,2.15,3.03,3.86l2.98,18c.15.88.68,1.32,1.59,1.32l40.22.1c1.86,0,3.37,1.49,3.42,3.35l.02,1.1c.07,2.81-1.3,4.23-4.13,4.21l-38.29-.15c-.98-.02-1.74.86-1.61,1.83l4.06,32.59c.29,2.35,1.61,3.52,3.99,3.5l49.56-.32c2.4-.02,3.64,1.17,3.72,3.57.07,1.49-.88,2.89-2.81,4.21-.42.29-.9.44-1.42.44l-48.95.42c-1.52,0-2.2.76-2.03,2.27M227.45,207.53c1.66,0,2.96-1.42,2.81-3.08l-3.11-31.69c-.15-1.42-1.34-2.52-2.79-2.54l-62.23-.39c-1.42-.02-2.62,1.03-2.81,2.42l-4.45,32.18c-.22,1.69,1.08,3.2,2.79,3.2l69.79-.1h0Z"/>
  <path class="cls-1" d="M208.82,308.32l.44-18.07c.07-2.67,1.42-4.21,4.06-4.62l1-.15c1.44-.22,2.71.9,2.69,2.37l-.39,19.44c-.02.98.76,1.76,1.71,1.78l27.92.39c1.69.02,3.06,1.32,3.18,2.98.02.27.05.56.07.86.12,2.37-1.03,3.59-3.4,3.62-34.97.49-69.03.86-103.14.05-1.98-.05-2.96-1.05-2.96-3.03v-1.76c.02-2.08,1.05-3.11,3.11-3.08l27,.22c1.2.02,2.18-.95,2.15-2.13l-.17-17.65c-.02-2.08.98-3.4,3.01-3.94.42-.12.86-.22,1.27-.34,2.64-.71,3.96.29,3.96,3.03l.1,19.1c.02,1.03.86,1.88,1.88,1.91l25.06.42c.95.02,1.42-.44,1.44-1.39h0Z"/>
  <path class="cls-1" d="M306.51,155.99c-1.84,0-3.61-1.05-4.44-2.83-1.14-2.45-.07-5.36,2.38-6.5,13.5-6.27,22.76-19.36,24.16-34.16,2.18-23.05-14.8-43.59-37.85-45.77-23.06-2.18-43.59,14.8-45.77,37.85-.18,1.88-.23,3.78-.16,5.65.11,2.7-2,4.97-4.7,5.08-2.69.1-4.97-2-5.08-4.7-.09-2.3-.02-4.64.19-6.95,2.69-28.42,28.01-49.35,56.43-46.67,28.42,2.69,49.36,28,46.67,56.43-1.73,18.25-13.14,34.38-29.78,42.11-.67.31-1.37.46-2.06.46Z"/>
  <g>
    <path class="cls-1" d="M226.97,107.35c-.17,0-.33,0-.5-.03l-15.38-1.56c-2.69-.27-4.64-2.67-4.37-5.36.27-2.69,2.68-4.64,5.36-4.37l15.38,1.56c2.69.27,4.64,2.67,4.37,5.36-.26,2.52-2.38,4.4-4.86,4.4Z"/>
    <path class="cls-1" d="M248.8,66.82c-1.42,0-2.83-.61-3.79-1.8l-9.77-11.98c-1.71-2.09-1.39-5.17.7-6.88,2.09-1.71,5.17-1.39,6.88.7l9.77,11.98c1.71,2.09,1.39,5.17-.7,6.88-.91.74-2,1.1-3.09,1.1Z"/>
    <path class="cls-1" d="M292.89,53.6c-.17,0-.33,0-.5-.03-2.69-.27-4.64-2.67-4.37-5.36l1.56-15.38c.27-2.69,2.67-4.65,5.36-4.37,2.69.27,4.64,2.67,4.37,5.36l-1.56,15.38c-.26,2.52-2.38,4.4-4.86,4.4Z"/>
    <path class="cls-1" d="M333.42,75.43c-1.42,0-2.83-.61-3.79-1.8-1.71-2.09-1.39-5.17.7-6.88l11.98-9.77c2.09-1.71,5.17-1.39,6.88.7,1.71,2.09,1.39,5.17-.7,6.88l-11.98,9.77c-.91.74-2,1.1-3.09,1.1Z"/>
    <path class="cls-1" d="M362.02,121.08c-.17,0-.33,0-.5-.03l-15.38-1.56c-2.69-.27-4.64-2.67-4.37-5.36.27-2.69,2.67-4.65,5.36-4.37l15.38,1.56c2.69.27,4.64,2.67,4.37,5.36-.26,2.52-2.38,4.4-4.86,4.4Z"/>
    <path class="cls-1" d="M334.58,172.03c-1.42,0-2.83-.61-3.79-1.8l-9.77-11.98c-1.71-2.09-1.39-5.17.7-6.88,2.09-1.71,5.17-1.39,6.88.7l9.77,11.98c1.71,2.09,1.39,5.17-.7,6.88-.91.74-2,1.1-3.09,1.1Z"/>
  </g>
</svg>