<?xml version="1.0" encoding="UTF-8"?>
<svg id="Layer_1" data-name="Layer 1" xmlns="http://www.w3.org/2000/svg" version="1.1" viewBox="0 0 400 400">
  <defs>
    <style>
      .cls-1 {
        fill: #fff;
        stroke-width: 0px;
      }
    </style>
  </defs>
  <path class="cls-1" d="M250.28,74.24h-108.29c-5,0-9.08-4.07-9.08-9.08v-16.08c0-5,4.07-9.08,9.08-9.08h22.39v-8.21c0-5.98,4.86-10.84,10.84-10.84h44.04c5.98,0,10.84,4.86,10.84,10.84v8.21h20.17c5,0,9.08,4.07,9.08,9.08v16.08c0,5-4.07,9.08-9.08,9.08ZM141.99,46.95c-1.18,0-2.13.96-2.13,2.13v16.08c0,1.18.96,2.13,2.13,2.13h108.29c1.18,0,2.13-.96,2.13-2.13v-16.08c0-1.18-.96-2.13-2.13-2.13h-27.11v-15.15c0-2.15-1.75-3.9-3.9-3.9h-44.04c-2.15,0-3.9,1.75-3.9,3.9v15.15h-29.34Z"/>
  <path class="cls-1" d="M290.23,325.01H102.04c-9.57,0-17.36-7.79-17.36-17.36V79.34c0-9.57,7.79-17.36,17.36-17.36h21.26c2.03,0,3.67,1.64,3.67,3.67s-1.64,3.67-3.67,3.67h-21.26c-5.53,0-10.02,4.5-10.02,10.02v228.31c0,5.53,4.5,10.02,10.02,10.02h188.19c5.53,0,10.02-4.5,10.02-10.02V79.34c0-5.53-4.5-10.02-10.02-10.02h-22.13c-2.03,0-3.67-1.64-3.67-3.67s1.64-3.67,3.67-3.67h22.13c9.57,0,17.36,7.79,17.36,17.36v228.31c0,9.57-7.79,17.36-17.36,17.36Z"/>
  <g>
    <line class="cls-1" x1="183.67" y1="240.55" x2="269.67" y2="240.55"/>
    <path class="cls-1" d="M269.67,244.22h-85.99c-2.03,0-3.67-1.64-3.67-3.67s1.64-3.67,3.67-3.67h85.99c2.03,0,3.67,1.64,3.67,3.67s-1.64,3.67-3.67,3.67Z"/>
  </g>
  <g>
    <line class="cls-1" x1="183.67" y1="266.53" x2="246.25" y2="266.53"/>
    <path class="cls-1" d="M246.25,270.19h-62.58c-2.03,0-3.67-1.64-3.67-3.67s1.64-3.67,3.67-3.67h62.58c2.03,0,3.67,1.64,3.67,3.67s-1.64,3.67-3.67,3.67Z"/>
  </g>
  <path class="cls-1" d="M136.4,270.07l-16.9-15.29c-1.5-1.36-1.62-3.68-.26-5.18,1.36-1.5,3.68-1.62,5.18-.26l11.44,10.35,20.02-22.3c1.35-1.51,3.67-1.63,5.18-.28,1.51,1.35,1.63,3.67.28,5.18l-24.94,27.78Z"/>
  <g>
    <line class="cls-1" x1="183.67" y1="176.99" x2="269.67" y2="176.99"/>
    <path class="cls-1" d="M269.67,180.66h-85.99c-2.03,0-3.67-1.64-3.67-3.67s1.64-3.67,3.67-3.67h85.99c2.03,0,3.67,1.64,3.67,3.67s-1.64,3.67-3.67,3.67Z"/>
  </g>
  <g>
    <line class="cls-1" x1="183.67" y1="202.96" x2="246.25" y2="202.96"/>
    <path class="cls-1" d="M246.25,206.63h-62.58c-2.03,0-3.67-1.64-3.67-3.67s1.64-3.67,3.67-3.67h62.58c2.03,0,3.67,1.64,3.67,3.67s-1.64,3.67-3.67,3.67Z"/>
  </g>
  <path class="cls-1" d="M136.4,206.51l-16.9-15.29c-1.5-1.36-1.62-3.68-.26-5.18,1.36-1.5,3.68-1.62,5.18-.26l11.44,10.35,20.02-22.3c1.35-1.51,3.67-1.63,5.18-.28,1.51,1.35,1.63,3.67.28,5.18l-24.94,27.78Z"/>
  <g>
    <line class="cls-1" x1="183.67" y1="111.9" x2="269.67" y2="111.9"/>
    <path class="cls-1" d="M269.67,115.57h-85.99c-2.03,0-3.67-1.64-3.67-3.67s1.64-3.67,3.67-3.67h85.99c2.03,0,3.67,1.64,3.67,3.67s-1.64,3.67-3.67,3.67Z"/>
  </g>
  <g>
    <line class="cls-1" x1="183.67" y1="137.87" x2="246.25" y2="137.87"/>
    <path class="cls-1" d="M246.25,141.54h-62.58c-2.03,0-3.67-1.64-3.67-3.67s1.64-3.67,3.67-3.67h62.58c2.03,0,3.67,1.64,3.67,3.67s-1.64,3.67-3.67,3.67Z"/>
  </g>
  <path class="cls-1" d="M136.4,141.42l-16.9-15.29c-1.5-1.36-1.62-3.68-.26-5.18,1.36-1.5,3.68-1.62,5.18-.26l11.44,10.35,20.02-22.3c1.35-1.51,3.67-1.63,5.18-.28,1.51,1.35,1.63,3.67.28,5.18l-24.94,27.78Z"/>
</svg>