<?xml version="1.0" encoding="UTF-8"?>
<svg id="Layer_1" data-name="Layer 1" xmlns="http://www.w3.org/2000/svg" version="1.1" viewBox="0 0 400 400">
  <defs>
    <style>
      .cls-1 {
        fill: #fff;
        stroke-width: 0px;
      }
    </style>
  </defs>
  <path class="cls-1" d="M279.9,51.77c.36,3.09,1.39,3.36,3.14.76,2.28-3.45,4.97-4.43,8.06-3.05,4.03,1.84,4.34,4.17.9,6.99-1.34,1.12-2.42,2.55-3.23,4.21-.54,1.16.4,2.46,1.66,2.28,2.55-.36,4.88.09,6.94,1.39,1.66.99,1.93,3.31.54,4.7-2.24,2.28-5.15,3.45-8.78,3.45-1.43,0-1.88,1.97-.58,2.6,2.51,1.16,4.21,3.09,5.15,5.82.58,1.66.13,3.05-1.3,4.08-1.21.9-2.55,1.16-4.03.85-1.66-.31-3.05-1.25-4.12-2.73-.4-.58-.94-1.12-1.52-1.57-1.93-1.48-2.91-.99-2.96,1.48l-.09,19.4c0,1.25,1.43,1.93,2.42,1.12,5.47-4.52,11.51-7.17,18.1-7.84,5.33-.54,8.11,1.88,8.24,7.26.58,20.74-8.06,33.6-25.94,38.61-1.84.49-2.73,1.7-2.73,3.63l.04,41.26c0,2.02,1.03,3.05,3.05,3.05l62.8.27c2.69,0,4.88,2.24,4.79,4.93-1.61,63.16-37.99,117.45-96.94,139.94-58.19,22.22-122.65,6.85-164.75-39.11-24.64-26.88-37.81-60.29-39.51-100.25-.13-3.09,2.37-5.69,5.51-5.69l61.86-.04c1.75,0,3.31-1.12,3.85-2.82.49-1.52.18-3.14-.94-4.88-.81-1.25-1.93-2.15-3.36-2.64-17.69-6.32-25.89-19.8-24.64-40.45.18-3.4,3.14-5.96,6.5-5.69,9.99.76,18.28,5.2,24.95,13.3.94,1.16,2.73,1.16,3.67,0,6.5-7.66,14.11-12.09,22.85-13.26,5.46-.76,8.33,1.66,8.6,7.17,1.03,20.16-7.62,33.28-25.98,39.37-1.93.63-2.96,1.93-3.14,3.9-.36,3.99,1.12,5.96,4.39,5.96,20.02.04,40.05.04,59.98.09,1.16,0,2.11-.94,2.15-2.15l.04-23.16c0-1.66-.81-2.73-2.37-3.23-19.66-6.36-28.31-20.52-25.85-42.42.31-2.73,2.82-4.7,5.55-4.35,10.62,1.34,18.9,5.64,24.86,12.95,1.16,1.43,3.4,1.48,4.57.04,5.69-6.85,13.17-11.15,22.4-12.99,3.85-.76,7.53,1.97,7.93,5.87,2.02,20.7-6.63,34.36-25.98,41.03-1.43.49-2.15,1.52-2.15,3l-.04,22.13c-.04,2.19,1.03,3.27,3.23,3.27l59.4.04c1.61,0,2.96-1.3,2.96-2.91l.13-40.81c0-1.66-.72-2.96-2.11-3.85-.99-.63-2.02-1.08-3.09-1.39-16.84-4.61-24.68-22.31-22.89-38.66.58-5.11,3.4-7.17,8.47-6.23,6.41,1.25,11.96,3.58,16.66,6.99,2.02,1.43,3,.94,2.96-1.52l-.09-17.25c0-2.02-.9-2.55-2.69-1.66-1.61.81-3.23,1.61-4.79,2.46-1.61.85-3,1.08-4.12.67-.9-.31-1.57-.85-2.02-1.61-.85-1.48-.67-2.87.45-4.17l3.94-4.34c1.21-1.3.94-2.19-.72-2.73-1.25-.4-2.6-.81-4.08-1.21-1.61-.45-2.73-1.03-3.36-1.79-1.08-1.3-1.25-2.78-.49-4.39.49-1.16,1.57-1.97,2.82-2.2l4.48-.76c2.55-.45,2.82-1.48.81-3.09-2.15-1.75-3.58-3.76-4.26-6.14-.4-1.39.31-2.91,1.7-3.49,3.76-1.57,6.63-.58,8.6,3.05,1.03,1.93,2.06,1.93,3.09,0,.76-1.48,1.21-3.05,1.3-4.66.04-1.48.72-2.64,1.97-3.45,1.16-.76,2.42-.9,3.72-.4,1.66.58,2.6,1.84,2.91,3.67.22,1.39.4,2.69.54,3.99M279.89,68.03c.37-2.37-1.55-4.61-4.25-5.05-2.73-.41-5.19,1.16-5.58,3.53-.37,2.37,1.55,4.61,4.25,5.05,2.73.41,5.19-1.16,5.58-3.53M269.06,131.7c2.87-1.81,1.57-8.93-2.89-15.91-4.45-6.95-10.37-11.12-13.23-9.3-2.87,1.81-1.57,8.93,2.89,15.91,4.45,6.95,10.37,11.12,13.23,9.3M280.87,131.76c2.84,1.9,8.84-2.22,13.42-9.12,4.56-6.9,5.95-14.06,3.1-15.93-2.84-1.9-8.84,2.22-13.42,9.12-4.56,6.9-5.95,14.06-3.1,15.93M194.07,150.92c2.87-1.86,1.49-9.16-3.12-16.31-4.62-7.14-10.67-11.49-13.53-9.63-2.87,1.86-1.49,9.16,3.12,16.31,4.62,7.14,10.67,11.49,13.53,9.63M205.39,150.76c2.84,1.93,9.02-2.28,13.75-9.34,4.73-7.09,6.25-14.35,3.4-16.27-2.84-1.93-9.02,2.28-13.75,9.34-4.72,7.09-6.25,14.35-3.4,16.27M118.71,169.42c2.85-1.82,1.55-8.89-2.9-15.85-4.46-6.93-10.33-11.1-13.17-9.28-2.85,1.82-1.55,8.89,2.9,15.85,4.46,6.93,10.33,11.1,13.17,9.28M130.9,169.25c2.89,1.85,8.85-2.32,13.29-9.27,4.42-6.97,5.68-14.1,2.79-15.96-2.89-1.85-8.85,2.32-13.29,9.27-4.42,6.97-5.68,14.1-2.79,15.96M237.71,314.36c.54,3.18-.72,5.55-3.72,7.12-3.05,1.66-6.14,2.73-9.27,3.27-1.75.31-3.31-.13-4.61-1.34l-5.82-5.29c-.94-.85-2.2-1.39-3.49-1.52-11.87-.9-20.25,4.03-25.13,14.78-.63,1.39.31,3,1.84,3.14,81.88,7.57,145.99-52.19,153.78-133.08.18-1.75-.63-2.64-2.42-2.64l-275.62.04c-2.91,0-5.15,2.55-4.75,5.42,9.9,68.94,48.29,112.03,115.17,129.28,1.61.4,3.23-.58,3.58-2.19,4.61-19.98,28.49-33.64,45.47-17.92,1.21,1.16,2.64,1.43,4.26.85l6.58-2.37c1.84-.67,3.85.49,4.17,2.46h0Z"/>
  <path class="cls-1" d="M150.36,297.42c-6.85-18.95,3.14-33.82,11.42-49.95,1.52-3-.05-6.67-3.27-7.66l-10.21-3c-1.57-.45-2.82-1.34-3.76-2.73-4.48-6.63-7.88-13.84-10.17-21.68-.36-1.3.4-2.64,1.7-3l1.34-.4c2.37-.67,4.93.49,6,2.73l6.9,13.8c.81,1.61,2.11,2.64,3.85,3.14,10.75,2.78,22.58,9.32,15.99,22.71-9,18.37-20.29,33.37-4.26,52.95,2.24,2.73.22,6.81-3.27,6.72-42.29-1.08-48.78-31.09-60.92-63.25-.63-1.75-1.75-3.09-3.31-4.03-12.36-7.61-22.4-19.71-11.69-33.19,1.48-1.84,3.4-2.42,5.87-1.75,1.57.4,2.37,1.43,2.37,3.09,0,2.06-.54,3.99-1.66,5.78-2.64,4.39-1.21,10.08,3.14,12.72,8.11,4.93,12.86,7.97,15.77,18.01,5.87,20.29,14.47,44.44,36.33,50.98,1.93.58,2.51-.09,1.84-1.97h0Z"/>
  <path class="cls-1" d="M275.06,283.18c8.56-1.25,9.45-14.78,10.08-23.7.13-1.48.63-2.78,1.48-3.99,5.42-7.35,10.84-14.65,16.31-21.86,4.61-6.09,5.64-12.86,3.05-20.25-.63-1.75.31-3.63,2.06-4.21,1.97-.67,3.67-.22,5.06,1.25,15.5,16.35-15.05,37.67-18.59,54.07-1.88,8.69-2.37,15.23-9.09,22.71-8.82,9.85-20.47,5.42-25.67-5.6-6.05-12.77-11.87-25.76-17.47-39.06-3.49-8.38-8.33-5.55-14.33-9.18-7.08-4.3-9.32-10.08-13.26-16.93-1.43-2.55-1.16-4.79.85-6.72,2.11-2.06,5.55-1.57,6.99.99l5.46,9.81c1.84,3.31,5.11,5.6,8.82,6.27,5.55.94,9.32,2.91,11.74,8.33,6.85,15.19,13.93,30.33,21.32,45.33.94,1.93,3.05,3.05,5.2,2.73h0Z"/>
</svg>