<?xml version="1.0" encoding="UTF-8"?>
<svg id="Layer_1" data-name="Layer 1" xmlns="http://www.w3.org/2000/svg" version="1.1" viewBox="0 0 400 400">
  <defs>
    <style>
      .cls-1 {
        fill: #fff;
        stroke-width: 0px;
      }
    </style>
  </defs>
  <path class="cls-1" d="M209.94,102.66c-5.51,10.26-10.97,21.01-16.35,32.16-.85,1.84-1.79,3.14-2.82,3.9-2.11,1.66-5.24.94-6.45-1.48l-9-18.14c-.9-1.79-1.93-1.88-3.05-.22-2.51,3.67-4.48,6.36-9.32,6.63-7.93.45-15.9.27-23.83-.54-1.57-.18-2.69-1.66-2.46-3.23l.22-1.34c.45-2.91,2.15-4.39,5.11-4.43l18.14-.18c1.88-.04,3.31-.81,4.34-2.37l6.5-10.08c1.66-2.6,5.51-2.37,6.94.36l9.05,17.69c.63,1.21,2.33,1.21,2.91,0l18.05-35.97c.9-1.84,3.09-2.69,5.02-1.97,1.48.54,2.6,1.61,3.36,3.18,3.99,8.74,7.66,17.25,11.02,25.58.9,2.19,3.05,3.63,5.42,3.63l43.99.04c3.09,0,5.15-1.48,6.14-4.48,6.9-20.65,5.02-38.52-5.6-53.62-19.22-27.23-56.44-19.4-70.82,7.75-1.57,2.96-5.82,3.05-7.53.13-5.11-8.65-11.56-15.23-19.4-19.71-26.38-15.1-58.41,5.82-60.79,34.4-1.61,18.99,3.09,36.55,14.16,52.72,17.16,25.08,39.87,49.86,68.04,74.27.94.81,2.28.81,3.23,0,24.19-20.78,46.18-44.39,66.03-70.82.94-1.25,2.42-1.97,3.99-1.97,3.09.04,4.21,2.19,3.45,6.54-.18,1.07-.63,2.06-1.3,2.91-23.83,31.04-47.48,55.9-70.91,74.67-1.79,1.43-4.34,1.39-6.09-.09-38.7-32.61-122.78-111.09-78.61-167.4,21.19-26.97,57.61-25.71,79.87.04,1.21,1.39,2.46,1.43,3.67.04,22.89-25.67,58.77-27.19,80.27.22,16.04,20.47,13.98,46.81,4.57,70.1-.99,2.42-3.36,3.99-5.96,3.99l-54.87.04c-3.49,0-6.63-2.15-7.93-5.38l-6.99-17.43c-.99-2.51-2.11-2.55-3.4-.18h0Z"/>
  <path class="cls-1" d="M276.28,257.47c16.53-8.15,32.79-15.72,48.69-22.76,24.91-10.97,39.46,22.44,16.89,33.42-43.23,21.01-85.65,41.48-127.17,61.37-7.48,3.58-20.61,3.18-29.21.81-30.28-8.47-59.26-16.35-86.95-23.7-13.53-3.54-27.5-7.48-36.33-19.8-12.32-17.16-13.53-34.63-3.63-52.41,14.96-26.79,41.93-25.76,69.52-23.7,26.97,2.02,53.4,7.79,74.22,25.26,2.06,1.7,4.66,2.64,7.35,2.6,12.45-.13,24.95-.27,37.54-.31,12.63-.09,24.28,2.73,25.04,16.89.13,2.82,1.48,3.58,4.03,2.33M169.72,269.78c.13-1.52,1.43-2.69,3-2.69l80.05-.09c5.96,0,9.45-2.91,10.53-8.73.31-1.66-.09-3.31-1.16-4.93-2.37-3.54-5.69-5.33-9.94-5.33h-47.26c-2.6,0-5.15-1.03-7.03-2.87-22.98-22.44-62.94-26.52-96.76-25.67-35.75.9-52.95,40.85-27.5,65.89,4.57,4.52,15.14,8.96,31.67,13.3,27.91,7.39,55.95,15.01,84.08,22.8,7.7,2.15,15.32,2.24,21.99-.99,41.61-20.02,83.5-40.14,125.6-60.34,5.51-2.64,7.26-6.81,5.33-12.59-.76-2.37-2.78-4.17-6.05-5.29-1.79-.63-3.72-.54-5.47.22-21.01,9.45-42.24,19.4-63.7,29.92-5.29,2.6-10.89,3.85-16.75,3.81-26.25-.13-51.74-.22-76.42-.18-3.18,0-4.66-1.57-4.35-4.75l.13-1.52h0Z"/>
</svg>