<?xml version="1.0" encoding="UTF-8"?>
<svg id="Layer_1" data-name="Layer 1" xmlns="http://www.w3.org/2000/svg" version="1.1" viewBox="0 0 512 512">
  <defs>
    <style>
      .cls-1 {
        fill: #fff;
        stroke-width: 0px;
      }
    </style>
  </defs>
  <g>
    <path class="cls-1" d="M442.5,235.1H75.9c-6.6,0-12.7-3-16.8-8.2l-15.2-19.4c-2.9-3.7-4.5-8.4-4.5-13.1v-108.2c0-11.7,9.5-21.3,21.3-21.3h397c11.7,0,21.3,9.5,21.3,21.3v108.2c0,4.7-1.6,9.4-4.5,13.1l-15.2,19.4c-4.1,5.2-10.2,8.2-16.7,8.2ZM60.7,79.2c-3.9,0-7.1,3.2-7.1,7.1v108.2c0,1.6.5,3.1,1.5,4.4l15.2,19.4c1.4,1.7,3.4,2.7,5.6,2.7h366.6c2.2,0,4.2-1,5.6-2.7l15.2-19.4c1-1.2,1.5-2.8,1.5-4.4v-108.2c0-3.9-3.2-7.1-7.1-7.1H60.7Z"/>
    <path class="cls-1" d="M436.5,235.1H82c-3.9,0-7.1-3.2-7.1-7.1v-24.4c0-11.7,9.5-21.3,21.3-21.3h326.1c11.7,0,21.3,9.5,21.3,21.3v24.4c0,3.9-3.2,7.1-7.1,7.1ZM89.1,221h340.3v-17.3c0-3.9-3.2-7.1-7.1-7.1H96.2c-3.9,0-7.1,3.2-7.1,7.1v17.3Z"/>
    <rect class="cls-1" x="401" y="97.9" width="35.4" height="14.2"/>
  </g>
  <path class="cls-1" d="M259.2,462c-2.5,0-4.9-1.4-6.1-3.5l-42.4-73.5c-1.3-2.2-1.3-4.9,0-7.1,1.3-2.2,3.6-3.5,6.1-3.5h16.9l18.5-92.2c.7-3.3,3.6-5.7,7-5.7s6.3,2.4,7,5.7l18.5,92.2h16.9c2.5,0,4.9,1.4,6.1,3.5,1.3,2.2,1.3,4.9,0,7.1l-42.4,73.5c-1.3,2.2-3.6,3.5-6.1,3.5ZM229.1,388.6l30.1,52.2,30.1-52.2h-10.4c-3.4,0-6.3-2.4-7-5.7l-12.7-63.3-12.7,63.3c-.7,3.3-3.6,5.7-7,5.7h-10.4Z"/>
  <path class="cls-1" d="M464.8,411.8c-.6,0-1.2,0-1.8-.2l-81.9-21.9c-2.4-.7-4.4-2.6-5-5-.7-2.4,0-5.1,1.8-6.8l12-12-52.1-78.3c-1.9-2.8-1.5-6.5.9-8.9,2.4-2.4,6.1-2.8,8.9-.9l78.3,52.1,12-12c1.8-1.8,4.4-2.5,6.8-1.8,2.4.7,4.4,2.6,5,5l22,81.9c.7,2.4,0,5.1-1.8,6.8-1.3,1.3-3.2,2.1-5,2.1ZM396.6,379.1l58.2,15.6-15.6-58.2-7.4,7.4c-2.4,2.4-6.1,2.8-8.9.9l-53.8-35.8,35.8,53.8c1.9,2.8,1.5,6.5-.9,8.9l-7.4,7.4Z"/>
  <path class="cls-1" d="M53.6,411.8c-1.9,0-3.7-.7-5-2.1-1.8-1.8-2.5-4.4-1.8-6.8l22-81.9c.7-2.4,2.6-4.4,5-5,2.5-.7,5.1,0,6.8,1.8l12,12,78.3-52.1c2.8-1.9,6.5-1.5,8.9.9,2.4,2.4,2.8,6.1.9,8.9l-52.1,78.3,12,12c1.8,1.8,2.5,4.4,1.8,6.8-.7,2.4-2.6,4.4-5,5l-81.9,21.9c-.6.2-1.2.2-1.8.2ZM79.2,336.5l-15.6,58.2,58.2-15.6-7.4-7.4c-2.4-2.4-2.8-6.1-.9-8.9l35.8-53.8-53.8,35.8c-2.8,1.9-6.5,1.5-8.9-.9l-7.4-7.4Z"/>
</svg>