<?xml version="1.0" encoding="UTF-8"?>
<svg xmlns="http://www.w3.org/2000/svg" version="1.1" viewBox="0 0 2976.38 2976.38">
  <defs>
    <style>
      .cls-1 {
        fill: #6f4028;
      }

      .cls-1, .cls-2, .cls-3, .cls-4, .cls-5, .cls-6, .cls-7, .cls-8, .cls-9, .cls-10, .cls-11, .cls-12, .cls-13, .cls-14, .cls-15, .cls-16, .cls-17, .cls-18, .cls-19, .cls-20, .cls-21, .cls-22, .cls-23, .cls-24, .cls-25, .cls-26, .cls-27, .cls-28, .cls-29, .cls-30, .cls-31, .cls-32, .cls-33, .cls-34, .cls-35 {
        stroke-width: 0px;
      }

      .cls-2 {
        fill: #eef6e5;
      }

      .cls-3 {
        fill: #bed99d;
      }

      .cls-36 {
        stroke: #465a2e;
        stroke-width: 2.28px;
      }

      .cls-36, .cls-37, .cls-38, .cls-39 {
        fill: none;
        stroke-linecap: round;
        stroke-linejoin: round;
      }

      .cls-4 {
        fill: #aac490;
      }

      .cls-37 {
        stroke: #7b4422;
        stroke-width: 1.3px;
      }

      .cls-5 {
        fill: #372e4f;
      }

      .cls-6 {
        fill: #50372a;
      }

      .cls-7 {
        fill: #224134;
      }

      .cls-40 {
        isolation: isolate;
      }

      .cls-8 {
        fill: #624333;
      }

      .cls-9 {
        fill: #adbd91;
        opacity: .5;
      }

      .cls-10 {
        fill: #a2bf82;
        mix-blend-mode: multiply;
        opacity: .68;
      }

      .cls-38 {
        stroke: #4e8157;
        stroke-width: 1.37px;
      }

      .cls-11 {
        fill: #301d13;
      }

      .cls-12 {
        fill: #39715a;
      }

      .cls-13 {
        fill: #dae0d1;
      }

      .cls-14 {
        fill: #c1cfb2;
      }

      .cls-15 {
        fill: #8b4d24;
      }

      .cls-16 {
        fill: #356751;
      }

      .cls-17 {
        fill: #b1ca8f;
      }

      .cls-18 {
        fill: #a4ae99;
      }

      .cls-19 {
        fill: #2f5846;
      }

      .cls-20 {
        fill: #8aac61;
      }

      .cls-21 {
        fill: #dae3cd;
      }

      .cls-39 {
        stroke: #2b5342;
        stroke-width: 2.4px;
      }

      .cls-22, .cls-29 {
        fill: #4d2d1c;
      }

      .cls-23 {
        fill: #ecf2e3;
      }

      .cls-24 {
        fill: #9ba68f;
      }

      .cls-25 {
        fill: #9cb383;
      }

      .cls-26 {
        fill: #93a187;
      }

      .cls-27 {
        fill: #6da67a;
      }

      .cls-28 {
        fill: #fff;
      }

      .cls-29 {
        fill-rule: evenodd;
      }

      .cls-30 {
        fill: #de593f;
      }

      .cls-31 {
        fill: #77b585;
      }

      .cls-32 {
        fill: #579162;
      }

      .cls-33 {
        fill: #aebaa0;
      }

      .cls-34 {
        fill: #713f1e;
      }

      .cls-35 {
        fill: #d2dfc3;
      }
    </style>
  </defs>
  <g class="cls-40">
    <g id="Layer_1" data-name="Layer 1">
      <g>
        <path class="cls-2" d="M2725.94,1463.9c221.53-631.48-373.34-1310.03-1084.83-1221.6-214.48,26.66-415.04,124.24-538.57,354.87-380.11,709.63-895.04,521.02-928.26,923.57-33.23,402.56,372.54,818.27,1191.39,194.28,410.73-312.99,1036.48,501.36,1282.7-56.27,29.88-67.67,55.72-132.54,77.57-194.84Z"/>
        <path class="cls-3" d="M1153.33,1639.07s26.36-472.7-669.17-526.78c0,0,95.42,663.38,669.17,526.78Z"/>
        <path class="cls-17" d="M1331.32,1717.24s258.72-645.79-610.07-1037.53c0,0-192.79,966.55,610.07,1037.53Z"/>
        <path class="cls-20" d="M1233.54,1562.86l-118.8-212.26c1.2-.56,2.23-1.5,2.83-2.73.11-.23.21-.47.29-.72l74.11-226.6c.89-2.73-.58-5.4-3.29-5.97-2.7-.56-5.64,1.16-6.52,3.92l-72.79,222.54-93.92-167.8,71.14-217.51c.89-2.73-.58-5.4-3.29-5.97-2.71-.56-5.63,1.16-6.52,3.92l-67.95,207.75-85.71-153.13c.05-.1.14-.17.19-.27,0-.02.02-.03.03-.05t0,0h0s0,0,0,0c.14-.28.25-.57.34-.87.02-.07,0-.13.02-.2.03-.11.08-.21.11-.32l30.17-161.69c.52-2.78-1.33-5.19-4.13-5.39-2.81-.19-5.5,1.93-6.02,4.68l-28.14,150.82-95.26-170.19c-1.3-2.32-4.41-2.95-6.94-1.41-2.54,1.54-3.54,4.67-2.24,7l94.17,168.24-160.19-28.15c-2.73-.48-5.59,1.35-6.41,4.1-.8,2.75.76,5.36,3.49,5.84l169.6,29.81,92.38,165.05-.13.39-228.71-29.08c-2.77-.35-5.57,1.59-6.24,4.37-.68,2.76,1.02,5.29,3.78,5.64l233.34,29.66c.28.04.55-.03.83-.04.26-.01.52.01.78-.03.36-.07.69-.21,1.03-.34.22-.09.46-.14.67-.26.11-.06.21-.13.31-.2l99.26,177.34c-.48-.26-1-.48-1.6-.55l-233.35-29.66c-2.77-.36-5.58,1.59-6.24,4.37-.68,2.77,1.02,5.29,3.78,5.64l233.35,29.66c2.38.31,4.78-1.1,5.84-3.26.17-.35.31-.72.4-1.11.09-.38.04-.73.05-1.1l112.87,201.67c1.3,2.32,4.41,2.95,6.94,1.41,1.01-.62,1.78-1.48,2.26-2.46.71-1.46.76-3.15-.02-4.54Z"/>
        <path class="cls-13" d="M1888.87,2484.46l161.8-23.08,505.67-408.21c19.39-15.66,13.25-46.65-10.65-53.72l-236.43-70-420.4,555.02Z"/>
        <path class="cls-7" d="M2508.79,1208.75c-.06-3.13-.79-6.24-1.99-9.12,0-.02-.02-.04-.02-.06-3.34-7.89-10.01-14.15-17.76-17.67-1.66-.75-3.37-1.38-5.13-1.86-.62-.18-1.25-.34-1.88-.48-.09-.02-27.99-5.99-28.08-6.01l-30.25,24.69c4.52,1.04,31.8,4.67,35.67,7.25,11.57,5.24,21.08,17.07,19.62,30.3l-5.09,86.67c-1.77-.37-20.48,26.7-19.89,27.01.08.04-18.4,646.28-18.4,646.28-.17,2.93-10.75,24.12-8.02,21.95l28.15-29.99c5.96-6.35,9.47-13.94,9.91-21.42l42.7-748.38c.2-3.99.5-7.29.46-9.01.01-.05,0-.1,0-.15Z"/>
        <path class="cls-19" d="M2471.1,1177.08l-1149.46-246.12h0s-.06-.01-.08-.02l-1.71-.37h-.02c-4.11-.91-6.49-1.32-10.39-1.16h-.01c-1.36.07-2.71.23-4.04.49-3.67.72-7.2,2.25-10.14,4.56l-18.25,14.48s7.89,3.53,17.38,6.11h0l1151.25,246.5,25.47-24.47ZM1311.18,935.31h0,0Z"/>
        <path class="cls-12" d="M2459.69,1192.13l-1159.75-248.32c-15.74-3.37-29.14,5.08-29.95,18.87l-36.73,625.85c-.04.69-.03,1.38,0,2.08l-8.75,142.08c-.81,13.8,13.1,27.32,28.84,30.69l1159.73,248.31c15.74,3.37,29.16-5.07,29.95-18.87l39.65-698.42c.05-.82.05-1.65,0-2.47l4.04-68.73c.81-13.8-11.29-27.7-27.03-31.07Z"/>
        <path class="cls-24" d="M2429.92,2018.19l-40.4,31.14-11.02-16.07-1141.1-263.69c-13.74-3.18-39.81,4.25-54.33,15.59l-452.26,351.77-.58-6.47-69.18,48.03-10.42-.94,3.93,28.03c1.66,5.91,6.6-1.24,11.26-.16l1185.69,284.88c13.74,3.18,36.95-2.76,51.46-14.1l508.61-396.96c7.92-6.19,13.8-16.93,13.36-21.94l4.97-39.1Z"/>
        <path class="cls-33" d="M1237.4,1769.57c-13.74-3.18-39.81,4.25-54.33,15.59l-452.26,351.77-.58-6.47-69.18,48.03-10.94-9.67,1.95,34.36c.08,5.67,4.67,7.76,9.33,8.84l1190.11,278.28c5.65,1.31,12.91,1.07,20.5-.45l-31.85-286.1c7.92-6.19-602.76-434.18-602.76-434.18Z"/>
        <path class="cls-23" d="M1847.49,2452.7l-1187.45-274.4c-13.74-3.18-13.11-15.05,1.4-26.39l530.04-406.14c14.51-11.34,39.64-15.75,53.39-12.57l1175.8,271.7c13.74,3.18,13.11,15.05-1.4,26.39l-520.39,406.57c-14.51,11.34-37.63,18.02-51.38,14.84Z"/>
        <g>
          <path class="cls-21" d="M1317.67,1846.09c-1.65,1.23-5.07,1.76-7.61,1.19l-70.62-15.9c-2.55-.57-3.27-2.04-1.62-3.27l45.78-33.97c1.66-1.23,5.07-1.76,7.62-1.19l70.62,15.9c2.54.57,3.27,2.03,1.61,3.26l-45.78,33.97Z"/>
          <path class="cls-21" d="M1400.96,1925.84c-1.67,1.24-5.06,1.78-7.64,1.19l-70.61-15.9c-2.54-.57-3.25-2.03-1.58-3.27l45.8-33.99c1.63-1.21,5.03-1.75,7.57-1.17l70.61,15.9c2.58.58,3.28,2.04,1.65,3.25l-45.8,33.99Z"/>
          <path class="cls-21" d="M1360.92,1977.83c-1.66,1.23-5.06,1.75-7.6,1.17l-70.63-15.91c-2.51-.56-3.29-2.02-1.63-3.25l45.81-33.99c1.62-1.2,5.08-1.73,7.59-1.17l70.63,15.91c2.54.57,3.26,2.04,1.64,3.24l-45.81,33.99Z"/>
          <path class="cls-21" d="M1250.24,2013.91c-1.64,1.21-5.06,1.75-7.58,1.18l-70.62-15.9c-2.52-.57-3.24-2.04-1.61-3.25l45.8-33.98c1.64-1.22,5.08-1.76,7.6-1.19l70.62,15.9c2.53.57,3.23,2.04,1.59,3.26l-45.8,33.98Z"/>
          <path class="cls-21" d="M1057.44,2039.19c-1.65,1.23-5.06,1.75-7.61,1.18l-70.62-15.9c-2.55-.57-3.28-2.03-1.63-3.26l53.77-39.9c1.61-1.2,5.06-1.75,7.61-1.18l70.62,15.9c2.54.57,3.24,2.06,1.62,3.26l-53.77,39.9Z"/>
          <path class="cls-21" d="M1179.21,2066.6c-1.65,1.23-5.7,1.61-9.06.86l-92.52-20.84c-3.31-.75-4.7-2.35-3.05-3.58l53.77-39.9c1.61-1.2,5.72-1.6,9.03-.86l92.52,20.84c3.36.76,4.69,2.39,3.07,3.58l-53.77,39.9Z"/>
          <path class="cls-21" d="M1787.05,2203.91c-1.38,1.02-4.56,1.38-7.1.81l-70.57-15.89c-2.58-.58-3.55-1.88-2.18-2.9l19.88-14.75c1.36-1.01,4.58-1.38,7.16-.8l70.57,15.89c2.54.57,3.49,1.88,2.12,2.89l-19.88,14.75Z"/>
          <path class="cls-21" d="M1881.43,2226.32c-1.38,1.02-4.56,1.38-7.1.81l-70.57-15.89c-2.58-.58-3.55-1.88-2.18-2.9l19.88-14.75c1.36-1.01,4.58-1.38,7.16-.8l70.57,15.89c2.54.57,3.49,1.88,2.12,2.89l-19.88,14.75Z"/>
          <path class="cls-21" d="M1981.44,2247.77c-1.32.98-4.48,1.31-7.02.74l-70.59-15.9c-2.53-.57-3.57-1.84-2.25-2.83l19.15-14.21c1.31-.97,4.51-1.3,7.05-.73l70.59,15.9c2.54.57,3.54,1.85,2.23,2.82l-19.15,14.21Z"/>
          <path class="cls-21" d="M1919.13,2198.94c-1.32.98-4.48,1.31-7.02.74l-70.59-15.9c-2.53-.57-3.57-1.84-2.25-2.83l19.15-14.21c1.31-.97,4.51-1.3,7.05-.73l70.59,15.9c2.54.57,3.54,1.85,2.23,2.82l-19.15,14.21Z"/>
          <path class="cls-21" d="M1664.98,2175.97c-1.65,1.23-5.09,1.75-7.65,1.17l-459.55-103.49c-2.51-.56-3.29-2.04-1.63-3.26l53.77-39.9c1.61-1.2,5.11-1.74,7.61-1.18l459.55,103.49c2.55.57,3.28,2.07,1.66,3.27l-53.77,39.9Z"/>
          <path class="cls-21" d="M1166.41,2055.33c-.1.08-.43.08-.73.02l-53.98-12.16c-.29-.07-.46-.18-.36-.26l3.34-2.48c.1-.07.43-.08.73-.02l53.98,12.16c.3.07.46.19.36.26l-3.34,2.48Z"/>
          <path class="cls-21" d="M1027.89,2019.25c-.1.08-.29.11-.42.09l-22.92-5.16c-.12-.03-.15-.11-.04-.19l3.34-2.48c.1-.07.29-.11.42-.09l22.92,5.16c.13.03.15.12.05.19l-3.34,2.48Z"/>
          <path class="cls-21" d="M1347.05,2035.67c-1.64,1.21-5.05,1.75-7.61,1.18l-70.61-15.9c-2.51-.56-3.27-2.05-1.64-3.26l45.8-33.98c1.64-1.22,5.12-1.75,7.63-1.19l70.61,15.9c2.56.58,3.26,2.05,1.62,3.27l-45.8,33.98Z"/>
          <path class="cls-21" d="M1444.27,2057.57c-1.64,1.21-5.08,1.75-7.58,1.18l-70.61-15.9c-2.53-.57-3.28-2.05-1.64-3.26l45.8-33.98c1.64-1.22,5.1-1.76,7.63-1.19l70.61,15.9c2.51.56,3.23,2.04,1.59,3.26l-45.8,33.98Z"/>
          <path class="cls-21" d="M1541.51,2079.47c-1.64,1.21-5.06,1.75-7.58,1.18l-70.62-15.9c-2.52-.57-3.24-2.04-1.6-3.25l45.8-33.98c1.64-1.22,5.07-1.76,7.6-1.19l70.62,15.9c2.52.57,3.23,2.04,1.59,3.26l-45.8,33.98Z"/>
          <path class="cls-21" d="M1638.76,2101.37c-1.64,1.21-5.05,1.75-7.59,1.18l-70.62-15.9c-2.55-.57-3.27-2.05-1.64-3.26l45.8-33.98c1.64-1.22,5.07-1.76,7.63-1.19l70.62,15.9c2.54.57,3.24,2.05,1.6,3.26l-45.8,33.98Z"/>
          <path class="cls-21" d="M1736.01,2123.27c-1.64,1.21-5.09,1.75-7.64,1.17l-70.6-15.9c-2.52-.57-3.24-2.04-1.6-3.25l45.8-33.98c1.64-1.22,5.07-1.76,7.6-1.19l70.6,15.9c2.55.58,3.29,2.06,1.65,3.28l-45.8,33.98Z"/>
          <path class="cls-21" d="M1833.25,2145.13c-1.64,1.21-5.07,1.75-7.6,1.18l-70.6-15.9c-2.54-.57-3.27-2.05-1.64-3.26l45.8-33.98c1.64-1.22,5.08-1.76,7.63-1.19l70.6,15.9c2.53.57,3.25,2.05,1.61,3.27l-45.8,33.98Z"/>
          <path class="cls-21" d="M2052.28,2194.45c-1.64,1.21-5.06,1.75-7.6,1.18l-192.4-43.33c-2.54-.57-3.26-2.04-1.62-3.26l45.8-33.98c1.64-1.22,5.07-1.76,7.62-1.19l192.4,43.33c2.54.57,3.25,2.05,1.61,3.27l-45.8,33.98Z"/>
          <path class="cls-21" d="M1457.69,1999.59c-1.66,1.23-5.01,1.76-7.56,1.18l-70.63-15.91c-2.54-.57-3.28-2.02-1.62-3.25l45.81-33.99c1.62-1.2,5.03-1.74,7.57-1.17l70.63,15.91c2.55.57,3.23,2.03,1.61,3.24l-45.81,33.99Z"/>
          <path class="cls-21" d="M1554.95,2021.49c-1.66,1.23-5.06,1.74-7.58,1.18l-70.65-15.91c-2.51-.57-3.25-2.01-1.59-3.24l45.81-33.99c1.62-1.2,5.04-1.74,7.55-1.17l70.65,15.91c2.52.57,3.25,2.04,1.63,3.24l-45.81,33.99Z"/>
          <path class="cls-21" d="M1652.19,2043.39c-1.66,1.23-5.08,1.74-7.6,1.17l-70.61-15.9c-2.5-.56-3.31-2.02-1.65-3.26l45.81-33.99c1.62-1.2,5.1-1.73,7.6-1.16l70.61,15.9c2.52.57,3.26,2.04,1.64,3.24l-45.81,33.99Z"/>
          <path class="cls-21" d="M1749.41,2065.28c-1.66,1.23-5.05,1.75-7.59,1.18l-70.6-15.9c-2.54-.57-3.29-2.02-1.63-3.25l45.81-33.99c1.62-1.2,5.04-1.74,7.59-1.17l70.6,15.9c2.53.57,3.25,2.04,1.63,3.24l-45.81,33.99Z"/>
          <path class="cls-21" d="M1846.69,2087.15c-1.66,1.23-5.06,1.74-7.59,1.18l-70.65-15.91c-2.54-.57-3.27-2.02-1.61-3.25l45.81-33.99c1.62-1.2,5.02-1.74,7.57-1.17l70.65,15.91c2.52.57,3.25,2.04,1.63,3.24l-45.81,33.99Z"/>
          <path class="cls-21" d="M1943.89,2109.04c-1.66,1.23-5.04,1.75-7.58,1.18l-70.59-15.9c-2.57-.58-3.31-2.03-1.65-3.26l45.81-33.99c1.62-1.2,5.04-1.74,7.61-1.16l70.59,15.9c2.53.57,3.24,2.04,1.62,3.24l-45.81,33.99Z"/>
          <path class="cls-21" d="M2041.13,2130.94c-1.66,1.23-5.05,1.75-7.58,1.18l-70.65-15.91c-2.52-.57-3.25-2.01-1.59-3.24l45.81-33.99c1.62-1.2,5.02-1.74,7.54-1.18l70.65,15.91c2.52.57,3.24,2.04,1.62,3.24l-45.81,33.99Z"/>
          <path class="cls-21" d="M1497.75,1947.6c-1.67,1.24-5.08,1.77-7.63,1.2l-70.62-15.9c-2.51-.57-3.23-2.03-1.56-3.27l45.8-33.99c1.63-1.21,5.04-1.74,7.55-1.18l70.62,15.9c2.55.57,3.26,2.04,1.64,3.25l-45.8,33.99Z"/>
          <path class="cls-21" d="M1594.97,1969.5c-1.67,1.24-5.09,1.77-7.6,1.2l-70.62-15.9c-2.54-.57-3.27-2.04-1.6-3.28l45.8-33.99c1.63-1.21,5.05-1.74,7.59-1.17l70.62,15.9c2.51.57,3.24,2.03,1.61,3.24l-45.8,33.99Z"/>
          <path class="cls-21" d="M1692.22,1991.4c-1.67,1.24-5.08,1.77-7.64,1.19l-70.61-15.9c-2.52-.57-3.24-2.03-1.57-3.27l45.8-33.99c1.63-1.21,5.04-1.74,7.56-1.17l70.61,15.9c2.56.58,3.28,2.04,1.65,3.25l-45.8,33.99Z"/>
          <path class="cls-21" d="M1789.44,2013.29c-1.67,1.24-5.05,1.78-7.6,1.2l-70.62-15.9c-2.54-.57-3.27-2.04-1.6-3.28l45.8-33.99c1.63-1.21,5.05-1.74,7.59-1.17l70.62,15.9c2.55.57,3.24,2.04,1.61,3.24l-45.8,33.99Z"/>
          <path class="cls-21" d="M1886.7,2035.16c-1.67,1.24-5.08,1.77-7.59,1.21l-70.62-15.9c-2.55-.58-3.26-2.03-1.59-3.27l45.8-33.99c1.63-1.21,5.03-1.75,7.58-1.17l70.62,15.9c2.5.56,3.22,2.03,1.6,3.24l-45.8,33.99Z"/>
          <path class="cls-21" d="M1983.96,2057.06c-1.67,1.24-5.09,1.77-7.65,1.19l-70.61-15.9c-2.5-.56-3.25-2.03-1.58-3.27l45.8-33.99c1.63-1.21,5.07-1.74,7.57-1.17l70.61,15.9c2.56.58,3.29,2.05,1.66,3.25l-45.8,33.99Z"/>
          <path class="cls-21" d="M2081.18,2078.95c-1.67,1.24-5.08,1.77-7.61,1.2l-70.62-15.9c-2.54-.57-3.26-2.03-1.59-3.27l45.8-33.99c1.63-1.21,5.04-1.74,7.58-1.17l70.62,15.9c2.52.57,3.24,2.04,1.62,3.24l-45.8,33.99Z"/>
          <path class="cls-21" d="M1303.73,1903.95c-1.67,1.24-5.09,1.77-7.63,1.2l-119.74-26.96c-2.55-.57-3.28-2.04-1.61-3.28l45.8-33.99c1.63-1.21,5.05-1.74,7.6-1.17l119.74,26.96c2.55.57,3.27,2.04,1.64,3.25l-45.8,33.99Z"/>
          <path class="cls-21" d="M2241.48,2054.06c-1.65,1.23-5.07,1.76-7.61,1.19l-119.74-26.97c-2.5-.56-3.26-2.04-1.6-3.26l45.78-33.97c1.66-1.23,5.1-1.75,7.6-1.19l119.74,26.97c2.54.57,3.27,2.03,1.61,3.26l-45.79,33.97Z"/>
          <path class="cls-21" d="M1263.66,1955.93c-1.66,1.23-5.03,1.75-7.6,1.17l-142.75-32.15c-2.55-.57-3.3-2.02-1.64-3.25l45.81-33.99c1.62-1.2,5.04-1.74,7.59-1.16l142.75,32.15c2.57.58,3.26,2.04,1.64,3.24l-45.81,33.99Z"/>
          <path class="cls-21" d="M1153.03,1992.02c-1.64,1.21-5.07,1.75-7.61,1.18l-95.18-21.43c-2.55-.57-3.27-2.05-1.63-3.26l45.8-33.98c1.64-1.22,5.07-1.76,7.62-1.19l95.18,21.43c2.54.57,3.26,2.05,1.62,3.27l-45.8,33.98Z"/>
          <path class="cls-21" d="M1414.88,1867.99c-1.65,1.23-5.05,1.76-7.63,1.18l-70.57-15.89c-2.54-.57-3.27-2.04-1.62-3.27l45.78-33.97c1.66-1.23,5.08-1.76,7.62-1.19l70.57,15.89c2.58.58,3.29,2.04,1.63,3.27l-45.78,33.97Z"/>
          <path class="cls-21" d="M1511.69,1889.75c-1.65,1.23-5.08,1.76-7.63,1.18l-70.62-15.9c-2.53-.57-3.27-2.04-1.61-3.27l45.78-33.97c1.66-1.23,5.09-1.76,7.61-1.19l70.62,15.9c2.54.57,3.29,2.04,1.63,3.27l-45.78,33.97Z"/>
          <path class="cls-21" d="M1608.89,1911.64c-1.65,1.23-5.03,1.77-7.59,1.19l-70.62-15.9c-2.53-.57-3.25-2.03-1.6-3.26l45.78-33.97c1.66-1.23,5.07-1.76,7.6-1.19l70.62,15.9c2.55.57,3.25,2.03,1.59,3.26l-45.78,33.97Z"/>
          <path class="cls-21" d="M1706.16,1933.54c-1.65,1.23-5.08,1.76-7.62,1.19l-70.58-15.89c-2.56-.58-3.28-2.04-1.63-3.27l45.78-33.97c1.66-1.23,5.07-1.76,7.63-1.18l70.58,15.89c2.54.57,3.28,2.03,1.62,3.27l-45.78,33.97Z"/>
          <path class="cls-21" d="M1803.36,1955.43c-1.65,1.23-5.02,1.77-7.58,1.19l-70.6-15.9c-2.56-.58-3.28-2.04-1.63-3.27l45.79-33.97c1.66-1.23,5.07-1.76,7.63-1.18l70.6,15.9c2.56.58,3.24,2.03,1.58,3.26l-45.78,33.97Z"/>
          <path class="cls-21" d="M1900.65,1977.3c-1.65,1.23-5.08,1.76-7.59,1.19l-70.65-15.91c-2.52-.57-3.24-2.03-1.58-3.26l45.78-33.97c1.66-1.23,5.06-1.76,7.58-1.19l70.65,15.91c2.51.57,3.25,2.03,1.59,3.26l-45.78,33.97Z"/>
          <path class="cls-21" d="M1997.89,1999.2c-1.65,1.23-5.07,1.76-7.61,1.19l-70.61-15.9c-2.55-.58-3.29-2.04-1.64-3.27l45.78-33.97c1.66-1.23,5.08-1.76,7.64-1.18l70.61,15.9c2.54.57,3.28,2.03,1.62,3.27l-45.79,33.97Z"/>
          <path class="cls-21" d="M2095.1,2021.09c-1.65,1.23-5.05,1.76-7.57,1.2l-70.67-15.91c-2.51-.57-3.22-2.03-1.57-3.26l45.78-33.97c1.66-1.23,5.06-1.76,7.57-1.2l70.67,15.91c2.52.57,3.23,2.02,1.57,3.26l-45.78,33.97Z"/>
          <path class="cls-21" d="M2151.95,2047.71c-1.17-.26-2.6-.32-4.12-.08-1.48.23-2.66.69-3.43,1.26l-45.8,33.99c-.77.57-1.11,1.24-.8,1.88.34.63,1.19,1.12,2.36,1.38l18.44,4.15-60.06,44.57c-.78.58-1.07,1.25-.75,1.88.32.64,1.19,1.11,2.39,1.37l47.57,10.71c1.2.27,2.64.32,4.14.09,1.48-.22,2.7-.69,3.48-1.26l108.88-80.79c.77-.57,1.07-1.23.74-1.86-.31-.65-1.19-1.12-2.4-1.39l-70.62-15.9Z"/>
          <path class="cls-21" d="M1140.09,1976.4c-.1.08-.43.08-.73.01l-53.98-12.16c-.29-.07-.46-.18-.36-.26l3.34-2.48c.1-.07.43-.08.73-.02l53.98,12.16c.3.07.46.19.36.26l-3.34,2.48Z"/>
        </g>
        <path class="cls-21" d="M1428.97,2286.39l-258.83-56.71c-3-.66-2.99-3,0-5.21l107.6-79.19c3-2.21,7.91-3.48,10.9-2.82l258.83,56.71c3,.66,2.99,3,0,5.21l-107.6,79.19c-3,2.21-7.91,3.48-10.9,2.82Z"/>
        <path class="cls-14" d="M2427.81,1247.43l-1098.96-237.78c-14.91-3.23-27.68,3.56-28.52,15.17l-5.38,73.88c-.23.89-.41,1.8-.48,2.76l-32.94,529.62c-.85,11.61,16.73,33.34,31.65,36.57l1087.68,247.66c14.91,3.23,27.69-3.56,28.53-15.17l5.04-96.61c.23-.89.41-1.81.48-2.77l38.39-526.49c.85-11.61-10.55-23.62-25.47-26.85Z"/>
        <path class="cls-5" d="M2017.61,2367.11c-1.18.01-2.36-.5-3.15-1.5-1.35-1.71-1.06-4.2.65-5.56l47.54-37.57c1.71-1.35,4.2-1.06,5.56.65,1.35,1.71,1.06,4.2-.65,5.56l-47.54,37.57c-.71.56-1.56.84-2.41.85Z"/>
        <path class="cls-5" d="M1958.22,2414.93c-1.18.01-2.36-.5-3.15-1.5-1.35-1.71-1.06-4.2.65-5.56l47.54-37.56c1.71-1.35,4.2-1.06,5.56.65,1.35,1.71,1.06,4.2-.65,5.56l-47.54,37.56c-.71.56-1.56.84-2.41.85Z"/>
        <ellipse class="cls-9" cx="1560.64" cy="2109.36" rx="482.86" ry="196.36" transform="translate(-30.97 23.27) rotate(-.85)"/>
        <g>
          <circle class="cls-35" cx="1440.23" cy="1716.71" r="537.1" transform="translate(-792.06 1521.21) rotate(-45)"/>
          <path class="cls-4" d="M1942.26,1525.67c-22.11-9.6-249.47-104.98-323.16,8.71-77.33,119.31-181.33,69.16-178.83,213.78,2.5,144.62,86.63,249.99,221.71,266.39,155.25,18.84-189.56,167.27-82.53,221,285.9-72.43,477.7-389.4,362.81-709.88Z"/>
          <path class="cls-25" d="M1269.71,1207.34s230.33,45.48,218.32,130.58c-12,85.1-65.84,56.39-153.43,84.58-87.59,28.19-111.14-18.26-172.5,43.17-61.36,61.44-190.66-11.36-190.66-11.36,0,0,76.03-172.42,298.27-246.97Z"/>
          <path class="cls-4" d="M906.23,1680.59s176.15,7.42,206.66,140.71,90.78,97.81,116.43,160.18c7.21,17.54,1.17,36.63-11.24,55-47.73,70.64-150.32,75.51-206.19,11.11-56.42-65.04-113.88-178.32-105.66-367Z"/>
          <path class="cls-10" d="M1821.64,2094.88c-208.86,210.64-548.93,212.09-759.57,3.23,558.17,106.91,848.07-358.38,756.34-762.8,210.64,208.86,212.09,548.93,3.23,759.57Z"/>
        </g>
        <path class="cls-39" d="M1913.29,1446.44c-24-41.67-53.78-80.49-87.68-114.14,0,.03.01.07.02.1-133.42-139.61-368.11-193.57-548.71-128.07-86.23,26.37-153.99,75.14-203.01,122.43"/>
        <g>
          <path class="cls-28" d="M1426.68,1773.41l64.84-28.39,35.03,95.34c7.88,22.63,5.22,46.39-7.08,63.28l-32.09,44.08-60.7-174.31Z"/>
          <path class="cls-28" d="M1332.9,1880.14l-2.82,74.61,95.67,21.46c21.6,4.85,41.66-1.52,53.44-16.95l28.79-39.84-175.08-39.28Z"/>
          <polygon class="cls-28" points="1295.15 1909.68 1364.46 1855.97 1354.83 1993.28 1295.15 1909.68"/>
          <path class="cls-28" d="M1521.8,1900.43s-20.57,21.49-108.49,2.57l-4.64,43.93,98.63-26.58,14.5-19.92Z"/>
          <path class="cls-28" d="M1264.05,1868.05l4.03,79.95-90.76-20.05c-21.41-5.19-40.55-21.38-50.98-43.12l-27.21-56.73,164.93,39.94Z"/>
          <path class="cls-28" d="M1203.08,1714.89l-61.79-45.4-47.25,81.77c-10.67,18.46-11.45,41.82-2.09,62.21l24.66,51.06,86.48-149.64Z"/>
          <polygon class="cls-28" points="1189.8 1660.9 1213.73 1759.72 1101.36 1671.8 1189.8 1660.9"/>
          <path class="cls-28" d="M1128.32,1888.97s-11.76-32.5,30.99-108.1l-35.47-29.66-7.81,112.13,12.3,25.63Z"/>
          <path class="cls-28" d="M1244.26,1666.06l-65.46-47.81,51.61-71.94c12.54-16.68,32.98-24.13,54.44-19.86l55.99,11.15-96.58,128.46Z"/>
          <path class="cls-28" d="M1390.53,1707.83l60.5-28.5-46.8-96.93c-10.56-21.88-28.92-37.69-48.88-42.09l-50.46-9.87,85.64,177.39Z"/>
          <polygon class="cls-28" points="1438.86 1730.25 1350.54 1688.88 1464.84 1640.52 1438.86 1730.25"/>
          <path class="cls-28" d="M1280.76,1525.64s30.58,9.96,74.21,98.71l37.61-14.03-86.52-79.64-25.3-5.04Z"/>
        </g>
        <circle class="cls-36" cx="1807.36" cy="704.9" r="28.04"/>
        <circle class="cls-36" cx="2769.3" cy="1674.88" r="28.04" transform="translate(673.45 4140.99) rotate(-80.81)"/>
        <circle class="cls-36" cx="273.05" cy="1855.25" r="28.04" transform="translate(-1602.01 1830.01) rotate(-80.86)"/>
        <g>
          <ellipse class="cls-13" cx="1437.19" cy="2671.18" rx="189.47" ry="96.64"/>
          <ellipse class="cls-13" cx="1586.65" cy="2550.44" rx="189.47" ry="96.64"/>
          <path class="cls-15" d="M1467.87,2219.11c-7.43,8.28-31.07,92.7-31.07,92.7l25.85,29.08s21.8-18.76,20.64-20.19c-1.16-1.43,62.22-97.6,62.22-97.6l-77.64-3.99Z"/>
          <path class="cls-22" d="M1706.47,2355.32s29.39,128.2-33.39,177.01c-48.89,38-142.64-19.8-142.64-19.8l-5.1-71.45,12.26-88.89,168.86,3.14Z"/>
          <path class="cls-31" d="M1565.45,2128.4c4.26-.94,27.11-5.75,31.46-5.41,20.07,1.54,28,.27,30.04,1.73l38.77,18.14c45,15.27,71.88,47.66,51.48,85.53,0,0-45.51,65.11-48.06,93.27-2.21,24.34,17.34,63.37,21.02,71.43,4.77,10.46-31.81,71.82-125.16,55.31-73.52-13-63.26-43.01-59.23-83.25,2.53-25.33,22.15-92.1,23.01-112.24.86-20.14-13.62-36.15-.91-67.81,7.84-19.52-4.65-24.05-.83-33.21,2.32-5.56,16.45-18.02,22.34-19.32l16.08-4.17Z"/>
          <path class="cls-32" d="M1713.04,2378.06c-1.21-16.33-2.34-79.69-.12-104.04,1.45-15.94-32.72,4.05-25.16-17.67-25.52,43.97-26.85,59.92-55.02,63.74,41.18,70.61,7.45,97.77,8.42,123.18,59-6.49,72.64-55.09,71.89-65.22Z"/>
          <path class="cls-15" d="M1724.71,2213.96s-1,142.35-39.51,177.61c-38.52,35.26-143.26-65.43-143.26-65.43l6-15.53,99.44,25,26.7-122.67,50.64,1.02Z"/>
          <path class="cls-31" d="M1720.22,2185s19.63,54,27.66,88.22c8.03,34.22-73.71,65.83-92.52,10.5-18.81-55.34,8.69-89.37,8.69-89.37l56.16-9.34Z"/>
          <path class="cls-15" d="M1436.85,2312.03l45.56-20.45,19.39,17.41-16.26,30.26c-3.12,9.29-19.89,16.56-32.69,11.25-13.74-5.71-19.66-31.92-16-38.47Z"/>
          <path class="cls-15" d="M1517.26,2298.36h0c1.69,8.48-2.1,16.3-8.44,17.38l-24.79-2.3c-6.35,1.08-2.02-.33-3.72-8.82h0c-1.69-8.48-7.94-8.52,3.6-13.45l18.01-2.6c2.34-.34,4.75-.35,7.11.16,4.4.94,6.89,2.95,8.22,9.63Z"/>
          <path class="cls-31" d="M1571.41,2211.27s-8.82,33.01-44.73,62.95c-17.34,6.78-75.29-43.91-72.29-46.67,47.81-64.55,58.04-84.95,92.7-94.02l24.32,77.75Z"/>
          <path class="cls-22" d="M1344.48,2687.88l34.85-38.45c5.74-3.58,13.09-5.92,22.16-5.72,4.07.09,4.13-2.89,4.63.69l7.04,13.88c5.8,9-.85,17.09-11.67,23.56l-36.92,21.37c-7.58,4.73-19.45,6.3-26.38,3.49l-1.96-.8c-6.93-2.81.6-11.11,8.26-18.02Z"/>
          <path class="cls-15" d="M1406.59,2647.89c-.06,11.77-28.04,15.77-27.98,4l.19-38.26,27.98-4-.19,38.26Z"/>
          <path class="cls-22" d="M1559.31,2395.76s-135.17-92.84-189.96-36.08c-29,30.04-2.69,267.88-2.69,267.88,0,0,23.49,20.24,48.95-3.46,0,0,34.63-131.12,18.25-156.82l59.96,24.53,65.49-96.04Z"/>
          <path class="cls-11" d="M1559.31,2395.76s-5.86,15.75-31.21,2.87c-27.95-14.21-60.85-8.11-78.66,2.64-20.99,12.67-32.98,36.05-32.42,60.56,1.23,53.67-5.14,111.47-13.45,170.31,3.71-1.49,7.73-4.04,12.03-8.05,0,0,34.63-131.12,18.25-156.82l59.96,24.53,65.49-96.04Z"/>
          <path class="cls-22" d="M1414.87,2708.21l36.73-36.4c5.78-3.1,12.96-4.72,21.54-3.47,3.85.56,4.19-2.56,4.31,1.26l5.31,15.39c4.62,10.13-2.47,17.85-13.35,23.41l-37.03,18.22c-7.63,4.1-19.02,4.39-25.31.64l-1.78-1.06c-6.29-3.74,1.65-11.61,9.58-17.99Z"/>
          <path class="cls-15" d="M1477.49,2673.18c-1.6,11.78-29.04,11.87-27.44.09l5.2-38.27,27.44-.09-5.2,38.27Z"/>
          <path class="cls-22" d="M1681.63,2436.05s-159.57-94.07-214.36-37.31c-29,30.04-29.6,249.67-29.6,249.67,0,0,24.99,27.85,50.44,4.15,0,0,60.05-120.53,43.67-146.23l59.96,24.53,89.89-94.81Z"/>
          <line class="cls-37" x1="1488.64" y1="2288.46" x2="1451.31" y2="2321.26"/>
          <path class="cls-11" d="M1526.31,2337.28l-20.34-5.05c-6.93-1.72-13.42-8.7-14.42-15.51l-8.67-58.69c-1-6.81,3.84-10.97,10.77-9.24l20.34,5.05c6.93,1.72,13.42,8.7,14.42,15.51l8.67,58.69c1,6.81-3.84,10.97-10.77,9.24Z"/>
          <path class="cls-15" d="M1521.23,2310.99h0c-1.02,4.92,1.98,9.98,6.65,11.26l16.25,4.43c4.67,1.27,9.32-1.7,10.33-6.61h0c1.02-4.92-1.98-9.98-6.65-11.26l-16.25-4.43c-4.67-1.27-9.32,1.7-10.33,6.61Z"/>
          <path class="cls-38" d="M1521.95,2239.88c-2.6-.93,12.55-47.65,12.55-47.65"/>
          <line class="cls-38" x1="1658.56" y1="2262.57" x2="1653.4" y2="2217.98"/>
          <g>
            <path class="cls-8" d="M1630.55,2121.29s26.42,7.69,26.02,21.27c-.07,2.27-.21,4.52-.39,6.68-.89,10.41-10.7,17.67-20.9,15.4l-71.03-15.84,10.28-36.6,56.03,9.09Z"/>
            <path class="cls-28" d="M1651.27,2146.33s1.08,23.75-35.31,40.28c-18.77,8.53-29.38,24.84-35.25,38.63-3.43,8.05-7.86,3.5-7.85-5.32.03-22.95-.07-29.61-3.04-46.87-4.82-27.91,11.28-67.1,12.8-67.26,1.52-.16,68.66,40.54,68.66,40.54Z"/>
            <path class="cls-8" d="M1605.99,2124.46s-33.97,7.2-29.91,38.64l-3.38,36.44s-20.74-43.69-4.53-81.13c16.21-37.44,37.83,6.04,37.83,6.04Z"/>
            <path class="cls-15" d="M1610.13,2166.42l-2.65.16c-8.96.54-16.62-6.3-17.03-15.19l-2.28-50.14c-.41-8.89,6.59-16.61,15.55-17.14l2.65-.16c8.96-.54,16.62,6.3,17.03,15.19l9.33,47.75c.41,8.89-13.64,18.99-22.6,19.53Z"/>
            <path class="cls-8" d="M1641.12,2125.4s15.85,28.35-28.52,46.57c0,0-18.08,15.24-20.4,33.59,0,0,15.28-9.76,24.08-15.02,8.8-5.26,77.79-35.1,24.84-65.14Z"/>
            <g>
              <path class="cls-34" d="M1589.24,2134.97s15.15-.93,25.35-16.14c0,0-10.38,28.54-24.24,31.56l-1.1-15.43Z"/>
              <path class="cls-15" d="M1617.19,2059.93c-6.5-8.49-15.07-9.02-22.28-2.72-7.98-2.24-16.68,3.69-22.17,16.6-7.64,17.97-9.31,45.15.17,57.53,4.14,5.4,12.84,7.76,18.13,7.19,4.95-.53,16.76-5.11,20.32-9.98,10.92-14.92,10.09-2.9,15.18-14.87,7.64-17.97.13-41.38-9.35-53.75Z"/>
              <path class="cls-6" d="M1606.96,2067.35c8.17,15.3,17.15,43.62,18.66,48.43,0,0,24.25-21.38,21.18-35.58-10.22-47.32-35.98-18.06-35.98-18.06l-3.86,5.2Z"/>
              <path class="cls-6" d="M1614.44,2043.67c10.34,1.12,17.29,7.87,21.91,20.61.59,1.63,4.99,8.76,5.28,10.16l-6.69-1.05c2.34,11.21-4.21-4.98-15.51-1.45-18.53-4.25,21.56,24.11-.95,25.24-4.5.23-8.5-9.75-12.11-13.22-20.27-19.46-35.16-2.46-37.38-3.18-6.74-2.21-3.87-12.1-.13-15.82,11.44-11.39,12.86-13.16,26.17-18.48l3.27-.93c6.13-1.74,11.48-2.37,16.13-1.87"/>
              <path class="cls-28" d="M1584.57,2126.47h0c-4.05-.33-7.15-4.72-6.92-9.8l14.68,1.19c-.23,5.09-3.71,8.94-7.76,8.62Z"/>
              <path class="cls-15" d="M1631.94,2103.85c1.01,5.31-2.51,10.61-7.84,11.85-5.34,1.24-10.48-2.05-11.49-7.36-1.01-5.31,2.51-10.61,7.84-11.85,5.34-1.24,10.48,2.05,11.49,7.36Z"/>
            </g>
          </g>
        </g>
        <g>
          <path class="cls-13" d="M569.02,2534.26c42.58-26.8,117.88-33.01,168.17-13.87,8.58,3.26,15.85,7.07,21.84,11.24,30.46-11.97,72.69-13.34,102.48-2.01,35.34,13.44,39.73,39.61,9.81,58.43-28.76,18.09-78.69,22.78-113.91,11.19-1.96,1.46-4.03,2.89-6.26,4.3-42.58,26.8-117.88,33.01-168.17,13.87-50.3-19.13-56.55-56.37-13.97-83.16Z"/>
          <path class="cls-22" d="M873.37,2542.84l-38.37-40.75c-5.75-2.69-16.26-3.32-24.7-1.44-3.79.84-5.68,3.46-5.75,7.3l-.59,7.14c-.62,11.95-1.91,15.93,5.68,19.48l45.03,21.08c9.36,6.6,34.69,1.91,18.7-12.8Z"/>
          <path class="cls-30" d="M833.77,2506.48s21.97,24.32,19.38,26.24c-10.74,7.95-37.8-13.09-37.8-13.09,0,0,13.56-14.2,18.42-13.15Z"/>
          <path class="cls-30" d="M806.84,2513.99c8.09,13.46,28.42,3.47,28.81-11.17-4.75-81.61,9.15-146.68,4.76-222.98-4.93-85.66-11.29-86.79-19.04-218.09l-78.94,17.07c19.93,93.62,32.73,212.57,32.73,212.57-16.02,92.71,10.13,110.92,31.68,222.6Z"/>
          <path class="cls-22" d="M633.38,2574.14l-2.37-48.5c-2.28-5.01-8.86-11.35-15.49-14.86-2.98-1.58-5.7-.92-7.91,1.58l-4.41,4.38c-7.14,7.53-10.23,9.44-7.22,16.06l17.85,39.28c2.46,9.63,21.82,20.8,19.55,2.08Z"/>
          <path class="cls-30" d="M627.73,2527.83s.8,28.42-1.99,28.23c-11.57-.8-17.82-26.93-17.82-26.93,0,0,17.2-4.73,19.81-1.3Z"/>
          <path class="cls-30" d="M607.92,2529.13c4.23,15.13,16.88,10.59,21.13-3.43,17.09-79.94,47.77-138.99,63.8-213.71,17.99-83.9,12.16-86.67,39.55-215.31l-80.63-4.51c-5.65,95.56-24.89,213.63-24.89,213.63-40.07,85.13-10.08,109.93-18.96,223.33Z"/>
          <path class="cls-1" d="M623.46,1986.38s-15.92,37.01-7.59,71.96c8.33,34.95-1.71,235.09-1.71,235.09,0,0-31.84,75.6-8.43,196.83,0,0,13.26,28.42,36.2,20.7,0,0,46.67-149.29,50.3-162.24,3.63-12.95,41.18-233.91,41.18-233.91l11.11,1.5,22.89,169.08s-13.45,101.2,33.09,198.69c0,0,30.26,9.16,42.53.68,0,0,8.07-172.07,7.54-181.5-.53-9.43-26.01-306.18-26.01-306.18l-201.1-10.69Z"/>
          <path class="cls-30" d="M943.4,1590.34h0c6.73,2.49,10.58,8.9,8.56,14.25l-12.5,18.03c-2.02,5.36-1.12,1.41-7.86-1.09h0c-6.73-2.49-9.5,2.29-7.91-8.78l6.07-15c.79-1.95,1.84-3.8,3.23-5.4,2.59-2.96,5.11-3.98,10.4-2.02Z"/>
          <path class="cls-29" d="M678.48,1685.6s-11,44.28-70.49,50.39c-35.83,3.68-47.52,35.44-60.13,74.63-20.16,62.7-82.73,36.88-86.08,128.26-2.05,56.02,48.09,100.61,135.66,49.17,87.57-51.44,226.95,18.32,235.69-171.77,1.51-32.85-56.03-31.98-54.93-62.22,1.21-33.16-25.69-79.65-25.69-79.65l-74.04,11.2Z"/>
          <path class="cls-18" d="M788.84,1835.43c-32.42,14.3-38.89-18.34-38.89-18.34l3.92-68.95c17.89-14.7,76.64-14.64,120.12-24.29,10.38-5.54,15.44-13.08,18.76-23.97l29.15-84.25,20.21,3.8-1.96,98.05c1.05,37.31-44.67,61.96-51.94,66.77,0,0-60.8,34.16-99.36,51.17Z"/>
          <path class="cls-30" d="M791.65,1811.63s-2.02-70.8-40.76-68.81c-5.4.28-14.57-4.52-20.8-4.07-32.31,2.35-27.73,2.42-50.99,12.02-8.77,3.62-13.75,29.32-12.1,38.86l-13.65,29.06,138.3-7.07Z"/>
          <path class="cls-18" d="M764.15,1740.52c-6.36-.73-14.73-2.13-13.79,1.53,4.14,16.07,3.1,27.17-2.34,32.08-32.81,29.66-50.9-9.64-54.85-23.67-.67-2.39-3.96-5.79-6.3-4.27l-2.81,1.21c-5.93,2.54-12.21,4.31-18.63,5.04-76.53,8.7-52.83,46.53-35.69,81.8,0,0,32.9,59.33,34.2,86.01,1.12,23.07-18.88,59.13-22.67,66.6-4.91,9.68,27.18,69.06,115.96,57.17,69.91-9.36,73.89-37.18,71.69-75.33-1.39-24.01-17.16-90.79-17.17-109.83-.01-19.04,14.46-31.63,3.71-62.01-10.74-30.39-17.67-51.04-17.67-51.04l-33.63-5.29Z"/>
          <path class="cls-30" d="M720.64,1748.19l1.61.15c5.44.52,10.07-3.42,10.29-8.76l1.23-30.1c.22-5.34-4.06-10.13-9.5-10.65l-1.61-.15c-5.44-.52-13.44,1.99-13.66,7.33l-2.64,31.97c-.22,5.34,8.83,9.7,14.28,10.22Z"/>
          <path class="cls-30" d="M733.34,1726.59s-12.89,1.04-22.76-10.72c0,0,10.34,18.22,22.32,19.13l.44-8.41Z"/>
          <path class="cls-22" d="M754.3,1679.12s9.79,30.89-7.56,39.97c-17.35,9.09-29.98-54.9-29.98-54.9l37.54,14.93Z"/>
          <path class="cls-30" d="M698.4,1668.46c3.61-8.61,10.54-11.12,17.76-7.64,6.11-3.79,14.48-.97,21.63,8.41,9.97,13.06,15.16,35.44,9.9,47.99-2.3,5.48-6.9,7.31-11.37,8.12-4.18.75-8.54.58-12.79-.31-15.22-3.21-15.18-1.02-21.82-9.73-9.97-13.06-8.58-34.29-3.32-46.85Z"/>
          <path class="cls-22" d="M708.33,1672.15c-3.58,14.67-.49,46.9-.75,51.27,0,0-29.4,2.55-29.38-30.98.03-41.74,25.89-23.67,25.89-23.67l4.24,3.38Z"/>
          <path class="cls-22" d="M699.02,1678.97c15.2-8.46,27.79-15.22,54.98,2.65,1.45-3.73-4.76-14.94-10.38-18.14-11.74-6.69-17.72-10.34-29.75-11.54l-2.88.02c-17.39.12-25.72,7.78-27.45,24.74-.15,1.49-2.31,8.47-2.26,9.7l5.28-2.49c.37,9.86,2.44-5.15,12.45-4.95Z"/>
          <path class="cls-28" d="M737.65,1715.41h0c3.15-1.34,5.47-6.57,5.19-11.67l-11.4,4.86c.29,5.1,3.07,8.15,6.22,6.81Z"/>
          <path class="cls-30" d="M575.66,2063.49h0c-7.01.04-12.75-4.5-12.74-10.1l5.23-20.83c0-5.61.54-1.68,7.56-1.72h0c7.01-.04,7.9-5.38,10.26,5.31l-.39,15.84c-.05,2.06-.37,4.12-1.1,6.06-1.35,3.61-3.3,5.41-8.82,5.44Z"/>
          <path class="cls-18" d="M603.05,1784.83c23.19-29.41,52.48-31.13,52.48-31.13l-10.64,113.16-68.55,49.88c-7.22,9.28-11.98,15.29-9.81,25.99l18.15,89.46-21.22,5.7-46.31-83.9c-19.35-31.13,12.31-72.19,16.91-79.47,0,0,42.91-56.6,68.99-89.68Z"/>
          <path class="cls-30" d="M695.27,1708.46c.26,4.64,4.24,8.2,8.88,7.94,4.64-.26,8.2-4.24,7.94-8.88-.26-4.64-4.24-8.2-8.88-7.94-4.64.26-8.2,4.24-7.94,8.88Z"/>
          <path class="cls-26" d="M619.55,1986.05c3.79-7.47,23.06-47.16,21.94-70.22-.74-15.1,2.36-66.14-3.91-86.94,12.06,22.95,21.11,46.36,31.04,63.79,12.37,21.72,15.73,47.24,11.25,71.83-7.69,42.19,17.31,72.19,48.16,81.69-67.09-2.67-112.82-51.59-108.47-60.15Z"/>
          <path class="cls-22" d="M767.41,2285.38l-23-171.2,21,4.79,18.25,174.1s13.21,150.43,32.05,194.3l-15.21-3.3s-47.98-81.09-33.09-198.69Z"/>
        </g>
        <g>
          <ellipse class="cls-13" cx="2368.22" cy="2359.34" rx="224.97" ry="95.55"/>
          <g>
            <path class="cls-16" d="M2360.43,2408.54h0c-15.01,0-27.3-12.28-27.3-27.3v-299.61c0-15.01,12.28-27.3,27.3-27.3h0c15.01,0,27.3,12.28,27.3,27.3v299.61c0,15.01-12.28,27.3-27.3,27.3Z"/>
            <path class="cls-27" d="M2543.38,1808.93c1.57-11.78,2.39-23.85,2.39-36.15,0-56.11-16.98-107.61-45.27-147.96,3.9-16.21,6.03-33.27,6.03-50.92,0-104.29-72.73-188.83-162.45-188.83s-162.45,84.54-162.45,188.83c0,17.65,2.13,34.71,6.02,50.92-28.29,40.36-45.27,91.85-45.27,147.96,0,12.29.82,24.36,2.39,36.15-49.59,42.31-80.22,100.31-80.22,164.33,0,129.48,125.15,234.45,279.52,234.45s279.52-104.97,279.52-234.45c0-64.02-30.63-122.02-80.22-164.33Z"/>
            <path class="cls-32" d="M2543.38,1808.93c1.57-11.78,2.39-23.85,2.39-36.15,0-56.11-16.98-107.61-45.27-147.96,3.9-16.21,6.02-33.27,6.02-50.92,0-78.65-41.37-146.04-100.19-174.44-62.26,388.2,118.07,564.62-153.04,795.53,28.47,8.2,58.99,12.71,90.78,12.71,154.37,0,279.52-104.97,279.52-234.45,0-64.02-30.63-122.02-80.22-164.33Z"/>
          </g>
        </g>
      </g>
    </g>
  </g>
</svg>