<?xml version="1.0" encoding="UTF-8"?>
<svg xmlns="http://www.w3.org/2000/svg" version="1.1" viewBox="0 0 2976.38 2976.38">
  <defs>
    <style>
      .cls-1 {
        fill: #eef6e5;
      }

      .cls-1, .cls-2, .cls-3, .cls-4, .cls-5, .cls-6, .cls-7, .cls-8, .cls-9, .cls-10, .cls-11, .cls-12, .cls-13, .cls-14, .cls-15 {
        stroke-width: 0px;
      }

      .cls-2 {
        fill: #53301e;
      }

      .cls-3 {
        fill: #6f8f47;
      }

      .cls-4 {
        fill: #ecf3e2;
      }

      .cls-16 {
        stroke: #7a9e51;
        stroke-width: 3.6px;
      }

      .cls-16, .cls-17, .cls-18, .cls-19, .cls-20, .cls-21 {
        fill: none;
        stroke-linecap: round;
        stroke-linejoin: round;
      }

      .cls-5 {
        fill: #507e6a;
      }

      .cls-6 {
        fill: #224134;
      }

      .cls-7 {
        fill: #356450;
      }

      .cls-8 {
        fill: #82a855;
      }

      .cls-17 {
        stroke: #465a2e;
        stroke-width: 2.15px;
      }

      .cls-22 {
        isolation: isolate;
      }

      .cls-18 {
        stroke: #86ad57;
        stroke-width: 5.75px;
      }

      .cls-9 {
        fill: #bf865a;
        mix-blend-mode: multiply;
        opacity: .29;
      }

      .cls-19 {
        stroke: #fff;
        stroke-width: 5.19px;
      }

      .cls-20 {
        stroke: #2b5342;
        stroke-width: 2.27px;
      }

      .cls-10 {
        fill: #dae0d1;
      }

      .cls-11 {
        fill: #c1cfb2;
      }

      .cls-12 {
        fill: #fff;
      }

      .cls-13 {
        fill: #de593f;
      }

      .cls-21 {
        stroke: #607b3e;
        stroke-width: 1.29px;
      }

      .cls-14 {
        fill: #91bb5e;
      }

      .cls-15 {
        fill: #bb432d;
      }
    </style>
  </defs>
  <g class="cls-22">
    <g id="Layer_1" data-name="Layer 1">
      <g>
        <path class="cls-1" d="M2592.64,2140.24s-284.73,424.33-729.13,178.04c-444.4-246.29-570.61-278.36-913.26-309.96-378.66-34.92-824.36-414.89-709.24-955.5C356.12,512.22,967.45,105.27,1666.18,325.01c1758.42,552.99,926.46,1815.23,926.46,1815.23Z"/>
        <path class="cls-11" d="M1107.07,1377.9c-47.32,78.31-40.43,144.54-26.89,185.61-35.02-42.93-70.56-82.07-104.36-116.77,94.54-143.21-9.15-216.19-9.15-216.19-44.45,76.7-38.23,141.11-24.8,182.17-.15-.15-.31-.31-.47-.46-46.76-45.65-91.81-85.17-130.86-117.42,72.55-164.71-46.94-218.23-46.94-218.23-31.67,91.51-6.78,157.11,16.3,193.4-41.8-33.23-73.59-55.89-88.31-66.1-98.75-113.43-212.89-74.93-212.89-74.93,78.61,116.5,160.04,103.42,196.59,89.09,11.52,7.88,45.72,31.78,92.54,69.05-122.02-14.27-182,66.9-182,66.9,133.77,51.6,192.79-9.08,213.48-41.34,38.24,31.66,82.19,70.29,127.8,114.84,4.73,4.62,9.54,9.38,14.37,14.21-123.29-45.25-202.27,27.19-202.27,27.19,131.38,82.41,202,19.17,223.08-6.13,35.44,36.47,72.79,77.89,109.36,123.41-118.85-42.67-196.37,25.85-196.37,25.85,122.16,79.79,196.8,24.84,222.68-2.11,76.5,99.88,150.83,224.27,189.68,352.02,1.68,5.52-.2,6.69,5.32,5.01,1.1-.34,2.11-.84,3-1.47,3.57-2.53,5.3-7.15,3.96-11.57-40.02-131.58-112.72-252.34-191.32-354.52,103.28-144.81-1.53-221.5-1.53-221.5Z"/>
        <path class="cls-11" d="M1373.29,1138.13c-95.98,79.71-116.72,168.11-117.64,227.07-25.92-70.97-54.2-137.27-82.21-197.09,185.83-142.21,84.88-282.58,84.88-282.58-91.55,78.92-112.35,164.69-113.41,223.58-.13-.26-.26-.54-.4-.8-39.82-79.72-80.19-150.78-116.07-209.77,167.11-179.74,37.12-302.11,37.12-302.11-81.71,103.72-78.99,199.35-65.49,256.42-38.98-61.49-69.81-104.9-84.2-124.63-76.48-190.28-240.73-191.72-240.73-191.72,49.17,185.22,159.91,204.79,213.4,202.67,11.31,15.3,44.68,61.38,88.34,130.33-150.81-72.95-264.36,4.79-264.36,4.79,149.24,126.28,252.41,74.51,293.48,42.21,35.1,57.88,74.44,127.3,113.27,205.08,4.03,8.07,8.09,16.35,12.16,24.73-138.58-113.42-272.72-55.42-272.72-55.42,132.39,164.92,251.64,115.02,290.1,91.86,29.34,62.83,58.93,132.89,85.69,207.88-134.01-108.12-264.52-54.51-264.52-54.51,121.68,157.41,242.4,120,287.8,96.86,53.88,162.88,94.01,356.34,86.93,538.28-.31,7.87-3.25,8.53,4.61,8.83,1.57.06,3.1-.13,4.53-.55,5.74-1.66,10.03-6.85,10.27-13.14,7.29-187.4-32.36-375.47-87.93-542.24,197.79-140.35,97.08-286.02,97.08-286.02Z"/>
        <ellipse class="cls-10" cx="1592.19" cy="2463.56" rx="258.14" ry="110.25"/>
        <path class="cls-6" d="M1611.16,2501.74c-52.73,30.46-138.5,30.31-191.56-.32-53.06-30.63-53.33-80.16-.6-110.61,52.73-30.45,138.5-30.31,191.56.32,53.06,30.63,53.33,80.16.6,110.61Z"/>
        <polygon class="cls-7" points="1707.33 2363.34 1321.57 2369.44 1321.57 1959.46 1707.33 1959.46 1707.33 2363.34"/>
        <path class="cls-7" d="M1651.04,2446.13c-75.28,43.87-197.43,44.15-272.84.62-75.41-43.53-75.51-114.39-.23-158.26,75.28-43.87,197.43-44.15,272.84-.62,75.41,43.53,75.51,114.39.23,158.26Z"/>
        <path class="cls-6" d="M1707.96,2071.08c-2.73-1.72-5.53-3.43-8.42-5.1-102.8-59.35-268.94-59.63-371.09-.63-2.13,1.23-4.2,2.49-6.25,3.75v206.06c2.42,1.51,4.88,3.01,7.42,4.47,102.8,59.35,268.94,59.63,371.09.63,2.48-1.43,4.89-2.9,7.25-4.37v-204.81Z"/>
        <path class="cls-7" d="M1700.08,2240.46c-102.15,59-268.3,58.72-371.09-.63-102.8-59.35-103.32-155.28-1.17-214.28,102.15-59,268.3-58.72,371.09.63,102.8,59.35,103.32,155.28,1.17,214.28Z"/>
        <rect class="cls-7" x="1251.56" y="2040.85" width="524.8" height="96.74"/>
        <path class="cls-5" d="M1700.08,2148.3c-102.15,59-268.3,58.72-371.09-.63-102.8-59.35-103.32-155.28-1.17-214.28,102.15-59,268.3-58.72,371.09.63,102.8,59.35,103.32,155.28,1.17,214.28Z"/>
        <path class="cls-12" d="M1985.73,1483.16c0-239.45-211.22-433.56-471.78-433.56-260.56,0-471.78,194.11-471.78,433.56,0,131.11,63.33,248.63,163.41,328.13,54.75,60.2,79.78,134.27,91.2,187.86,11.06,51.91,48.38,93.9,98.57,111.15,81.27,27.93,159.71,31.36,234.5,3.19,47.47-17.88,82.26-59.18,92.43-108.88,10.24-50.08,34.26-122.26,90.62-184.22,1.62-1.78,3.07-3.51,4.4-5.2,102.97-79.53,168.44-198.75,168.44-332.04Z"/>
        <path class="cls-20" d="M1723.5,2003.38c33.83-135.14,93.69-187.72,95.02-189.42,102.97-79.53,168.44-198.75,168.44-332.04,0-181.7-121.63-337.3-294.15-401.78"/>
        <path class="cls-20" d="M1055.97,1355.16c41.56-125.11,143.02-226.19,273.67-275.02"/>
        <path class="cls-20" d="M1283.38,1951.2c-33.93-96.74-78.3-135.78-79.44-137.24-75.16-58.05-130.33-137.23-154.66-227.6"/>
        <path class="cls-4" d="M1631.82,2066.26c-63.5,36.67-166.77,36.5-230.67-.39-63.9-36.89-64.23-96.52-.73-133.2,63.5-36.67,166.77-36.5,230.67.39,63.9,36.89,64.23,96.52.73,133.2Z"/>
        <g>
          <g>
            <path class="cls-10" d="M1362.39,2539.49c-83.92-40.35-237.81-37.45-343.71,6.46-105.9,43.92-123.71,112.23-39.79,152.58,83.92,40.35,237.81,37.45,343.71-6.46,105.9-43.92,123.71-112.23,39.79-152.58Z"/>
            <g>
              <path class="cls-3" d="M1293.97,2532.99c2.26,7.59,1.5,65.31-1.95,73.74-5.99,26.67-30.13,52.84-72.08,73.24-92.04,44.77-234.62,44.84-318.47.17-39.08-20.82-60.83-42.82-62.71-71.48-1.98-15.45-4.62-58.71-4.62-58.71,2.53-9.6,15.14-.31,22.38-9.49,11.83-18,32.34-34.98,61.52-49.17,92.03-44.77,234.62-44.84,318.47-.17,35.31,18.82,53.86,17.33,57.45,41.87Z"/>
              <path class="cls-14" d="M1237.5,2453.99c-83.44-46.26-228.75-46.48-324.55-.5-95.81,45.98-105.83,120.75-22.4,167.01,83.44,46.26,228.75,46.48,324.55.5,95.81-45.98,105.83-120.75,22.4-167.01Z"/>
            </g>
            <path class="cls-9" d="M1053.94,2713.58s91.29-35.58,109.94-73.52c0,0,132.3-33.46,130.79-111.67,0,0,3.32,6-.89,68.2,0,0-.31,40.34-54.29,72.71,0,0-67.75,45.53-185.54,44.29Z"/>
          </g>
          <polyline class="cls-19" points="992.33 2487.05 1000.81 2563.43 1189.76 2506.49"/>
        </g>
        <circle class="cls-17" cx="2399.93" cy="1409.05" r="28.73" transform="translate(-356.54 1025.67) rotate(-22.5)"/>
        <circle class="cls-17" cx="1402.08" cy="732.73" r="28.73" transform="translate(556.21 2069.6) rotate(-85.27)"/>
        <circle class="cls-17" cx="845.66" cy="2130.95" r="28.73"/>
        <path class="cls-14" d="M1521.14,1717.21s-106.69-290.7,258.3-373.69c0,0,36.18,269.1-258.3,373.69Z"/>
        <path class="cls-14" d="M1522.59,1707.22s-261.64,48.59-382.96-241.31c0,0,374.76-45.37,382.96,241.31Z"/>
        <path class="cls-18" d="M1525.85,2013.89s18.82-190.15-41.61-511.94"/>
        <line class="cls-16" x1="1549.25" y1="1636.89" x2="1755.39" y2="1372.37"/>
        <line class="cls-16" x1="1179.16" y1="1488.75" x2="1468.15" y2="1658.89"/>
        <g>
          <path class="cls-13" d="M1768.94,1767.66h0c-2.66,7.41-.12,15.19,5.66,17.29l23.44,2.31c5.79,2.11,1.93.06,4.6-7.36h0c2.66-7.41,8.5-6.33-1.65-12.86l-16.48-5.55c-2.14-.72-4.39-1.16-6.66-1.12-4.23.07-6.81,1.46-8.91,7.29Z"/>
          <path class="cls-14" d="M2041.23,1779.3l-114.01,37.23-119.75-46.97-10.56,23.37s87.31,83.67,118.26,89.95c4.57.93,101.14-18.69,101.14-18.69l24.92-84.89Z"/>
          <path class="cls-10" d="M2298.66,2603.36c-53.57-26.05-144.77-25.77-203.71.63-10.06,4.5-18.48,9.49-25.35,14.77-37.71-10.54-88.67-7.99-123.58,7.64-41.41,18.55-44.47,48.43-6.83,66.73,36.17,17.59,96.71,18.05,138.14,1.6,2.49,1.45,5.1,2.87,7.9,4.23,53.57,26.05,144.77,25.77,203.71-.63,58.94-26.4,63.29-68.92,9.72-94.97Z"/>
          <path class="cls-2" d="M1983.62,2636.01l36.5-39.02c7.05-7.54,16.77-12,26.9-12.11,3.64-.04,7.31.22,10.72.8,4.58.78,6.94,3.65,7.16,7.97l.97,8.02c1.19,13.44,2.87,17.87-6.1,22.21l-53.25,25.75c-10.99,7.85-41.54,3.68-22.9-13.61Z"/>
          <path class="cls-13" d="M2059.28,2587.83c-1.2,9-8.95,16.62-17.82,16.03-4.39-.29-7.52-2.73-8.5-10.95-2.63-92.55-14.95-169.28-17.46-255.79-2.83-97.14,1.02-68.63-3.09-217.54l88.03-22.15c-14.38,108.12-17.6,243.8-17.6,243.8,27.65,98.44-7.93,129.65-23.54,246.6Z"/>
          <path class="cls-2" d="M2108,2063.5l-20.2,228.65c-2.66,24.58-1.84,44.04,3.58,68.11,8.03,35.64,6.58,107.91-20.45,213.68-13.73,11.68-28.5,12.01-44.15,2.65,0,0-22.13-232.17-23.62-277.04-1.5-44.87.04-286.94.04-286.94l104.81,50.89Z"/>
          <path class="cls-2" d="M2213.21,2617.45l2.05,29.23c.42,3.05,4.38,19.06,5.91,21.77,4.42,7.83,11.22,10.68,17.66,10.71,8.54.04,24.98-15.06,18.06-32.18-6.03-14.92-17.8-38.61-17.8-38.61-11.76,5.87-17.21,8.55-25.88,9.07Z"/>
          <path class="cls-13" d="M2239.05,2616.73c2.16,11.4-16.24,17.38-24.49,6.17-13.12-91.35-33.25-173.72-45.56-259.1-13.83-95.87-22.25-89.7-43.21-236.7l97.43.23c-2.11,108.22,10.04,242.75,10.04,242.75,40.27,98.72,5.69,118.09,5.8,246.66Z"/>
          <path class="cls-2" d="M2228.81,2036.9s-2.94,194.97,4.49,237.47c5.77,33.03,19.49,87.04,25.31,109.47,1.9,7.32,3.08,14.75,3.54,22.29,2.01,33.13,2.17,124.4-7.76,180.75-9.81,15.76-32.88,13.59-50.55,5.37l-47.49-221.24c-.69-2.58-39.83-195.43-39.83-195.43l-54.7-4.02,27.99-131.97s146.15,9.29,139-2.69Z"/>
          <path class="cls-14" d="M2065.44,1774.67c12.18-.69,23.35-2.74,26.65-5.09,18.5-13.18,40.42-5.64,42.77-4.21l61.51,16.85c56.8,17,52.59,76.33,54.42,109.7,0,0-18.83,38.53-20.08,70.09-1.08,27.29-16.82,89.23-12.28,97.87,3.39,6.47,3.8,47.11-29.67,58.96-29.57,10.47-77.01,32.76-102.39,33.22-133.5,2.4-97.38-61.62-95.18-106.77,1.38-28.41,7.28-112.35,7.1-134.84-.19-22.49,4.95-127.98,49.89-132.9l17.28-2.88Z"/>
          <path class="cls-13" d="M2120.08,1786.24l-2.56-2.48c-6.53,1.95-12.35,1.32-13.7-5.13l-7.63-36.37c-1.35-6.45,2.88-13.32,9.41-15.26l1.93-.58c6.53-1.95,24.75-1.86,26.1,4.59l5.04,38.51c1.35,6.45-12.06,14.77-18.59,16.72Z"/>
          <path class="cls-15" d="M2100.45,1761.69s15.92-1.84,25.55-18.54c0,0-9.33,24.41-23.74,28.39l-1.82-9.86Z"/>
          <path class="cls-13" d="M2130.94,1683.78c-6.15-9.62-15.11-11-23.2-5.02-8.21-3.14-17.84,2.31-24.65,15.46-9.48,18.31-13.43,46.95-4.47,60.98,3.92,6.12,12.87,9.46,18.48,9.36,5.25-.09,9.72-3.7,14.72-5.82,17.89-7.57,18.29-4.9,24.61-17.1,9.48-18.31,3.48-43.83-5.49-57.86Z"/>
          <path class="cls-2" d="M2119.59,1690.67c7.35,17,14.5,47.87,15.71,53.12,0,0,27.22-20.33,25.14-35.67-6.92-51.13-36.37-22.59-36.37-22.59l-4.48,5.14Z"/>
          <path class="cls-2" d="M2129.36,1666.29c10.78,2.18,17.54,10,21.37,23.95.49,1.78,4.54,9.76,4.73,11.27l-6.94-1.76c1.56,12.1-4.02-5.68-16.19-3.03-19.14-6.28-34.13,21.59-55.91,12.03-2.94-1.29-5.13-4-5.72-7.16-.79-4.25-.11-9.41,4.12-12.98,12.95-10.97,19.49-16.86,33.91-21.22l3.51-.67c6.59-1.25,12.26-1.41,17.11-.43"/>
          <path class="cls-12" d="M2091.27,1751.16h0c-4.23-.74-7.14-5.68-6.48-11.05l15.34,2.67c-.66,5.37-4.62,9.12-8.86,8.38Z"/>
          <path class="cls-13" d="M2142.9,1731.74c.63,5.72-3.49,11-9.2,11.81-5.71.8-10.85-3.18-11.48-8.9-.63-5.72,3.49-11,9.2-11.81,5.71-.8,10.85,3.18,11.48,8.9Z"/>
          <path class="cls-12" d="M2100.97,1764.5l-10.72,3.63s-5.32,19.21,3.52,26.32l15.92-10.69s-9.9-9.15-8.71-19.26Z"/>
          <path class="cls-12" d="M2109.68,1783.76l9.87,15.55s32.51-12.05,32.93-30.48l-14.81-6.89s-15.17,22.9-28,21.82Z"/>
          <path class="cls-8" d="M2243.36,2083.58c-2.23-15.3-3.21-94.4-2.13-121.69.71-17.87,2.46-69.91,4.64-96.41-12.92,25.61-22.21,35.54-23.53,41.76-10.4,48.87-12.71,75.45-35.94,104.42-44.58,55.58-56.11,83.71-100.04,140.39,92.72,2.53,121.28-4.7,140.64-16.77,24.03-15,17.51-43.86,16.37-51.7Z"/>
          <line class="cls-21" x1="2009.34" y1="1851.53" x2="2005.6" y2="1869.93"/>
          <path class="cls-13" d="M2333.54,2081.12h0c6.01-2.57,13.03.23,15.61,6.24l6.3,14.68c2.58,6.01-.23,13.04-6.24,15.62h0c-6.01,2.57-13.03-.23-15.61-6.24l-6.3-14.68c-2.58-6.01.23-13.04,6.24-15.62Z"/>
          <polygon class="cls-13" points="2310.02 2041.87 2327.65 2089.47 2345.13 2087.07 2337.07 2017.52 2310.02 2041.87"/>
          <path class="cls-14" d="M2232.98,1806.92c-2.37-3.07,78.04,96.54,97.41,123.54,4.82,6.72,20.57,137.5,20.57,137.5l-35.08,7.05-46.84-109.45-72.96-89.48,36.9-69.16Z"/>
          <line class="cls-21" x1="2217.45" y1="1895.5" x2="2205.82" y2="1857.24"/>
        </g>
      </g>
    </g>
  </g>
</svg>