<?xml version="1.0" encoding="UTF-8"?>
<svg id="Layer_1" data-name="Layer 1" xmlns="http://www.w3.org/2000/svg" version="1.1" viewBox="0 0 512 512">
  <defs>
    <style>
      .cls-1 {
        fill: #fff;
        stroke-width: 0px;
      }
    </style>
  </defs>
  <path class="cls-1" d="M336.8,122.6c6.4-3.6,9.9-10.3,16.6-12.9,9.2-3.6,17.4-2.3,24.7,4.1,12.8,11.2,23,21.3,30.8,30.5,11.7,13.7,4.8,24.1-4.6,35.8-8.2,10.1-.7,25.4,7,33.3.8.9,1.8,1.3,3,1.4,17.2,1.2,31.3,2.5,33.2,23.8,1.4,15.6,1.5,29.7.2,42.4-1.9,18.6-14.8,20.9-30.4,22.5-9.2.9-14.2,14.2-16.1,21.7-1.6,6.4-.4,10.5,4.6,15.4,8.3,8.2,10.7,17.2,7,27-1.8,4.9-7.1,11.4-16.1,19.8-9.5,8.8-21,25.2-35.6,23.9-11-1-15.7-11.9-25.3-13.2-11.4-1.6-28.1,4.4-28.9,18.3-.8,15-6.6,27-23.5,27.4-16,.3-30.2,0-42.5-.5-16.1-.9-23.1-14-22-28.8.9-11-17.9-16.7-26-17.6-2.2-.2-4.2.3-6,1.6-3.2,2.3-6.2,4.6-9,7-8,6.8-20.1,7.8-27.9,1.2-14.2-12.1-25-22.6-32.4-31.4-7.7-9.2-8.3-18.8-1.7-28.8,4.1-6.3,11-14.3,8.7-21.9-4.1-13.5-6.9-22.5-23.4-22.5-13,0-21.7-8.2-22.7-21.4-1-14.2-.8-29.4.6-45.5,1.4-16.2,16.3-20,30-20.4,3,0,5.8-1.7,7.5-4.2,4.6-7,7.6-14.6,9-22.9.2-1.2,0-2.3-.9-3.3-4.2-5.1-9.5-10.1-11.7-16-4.7-13.1.6-21.3,10.3-31,7.7-7.7,15.3-15.4,23-22.9,7.1-7,15.2-8.5,24.3-4.6,3.3,1.4,6.9,3.6,10.7,6.5,3,2.3,6.1,4.3,9.4,6,1,.5,2,.6,3,.4,7.2-1.1,13.3-3.5,18.3-6.9,5.1-3.5,6.5-8.5,7.1-15.3.8-9.6,5.1-22.6,15.4-24.8,4.7-1,10.1-1.5,16.2-1.6,16.5-.2,28.7,0,36.6,1,7.2.8,12.5,4.2,16,10.2,6.6,11.4-3.4,23,12.7,31,5.6,2.7,10.9,5,15.9,6.6,1.7.5,3.2.4,4.7-.4M197,386.9c6.9,1.7,13.7,4.3,20.6,8,10.2,5.5,11,14.7,12.3,24.7,1.1,9.3,5.4,14.2,14.8,14.3,12.5.2,25,.2,37.6,0,15.1-.2,13.2-13,14.9-23.7,2.3-14.2,20.3-22,32.5-23.8,11.8-1.7,21.3,6.9,29.4,14.5,1.1,1,2.7,1.3,4.1.6,3.6-1.7,6.9-3.9,9.9-6.5,10.2-8.8,19.2-17.8,27-27,4-4.7,5.7-12.8.4-17.3-14.5-12.2-11.4-26-4.3-41.4,7.9-17.1,15.7-14.6,31.4-18.1,10-2.2,8.7-8.1,9.2-16.1.5-10.1.8-20.1.7-30.2,0-4.8-.6-8.9-1.9-12.2-1.5-4.2-5.6-6.9-10-6.7-11,.4-23-2.8-28.1-13.4-4.8-10-10.3-24.1-4.5-33.7,3.4-5.7,6.9-11.3,10.5-16.9.6-.9.9-1.9.8-2.9-.9-10.9-25-30.8-33.5-37.8-5.2-4.3-11-5.1-16.5-.6-9.1,7.3-18,16-30.9,9.8-4.8-2.3-9.7-4.8-14.9-7.4-9.1-4.7-12.9-13.4-12-23,.8-8.2-3.4-14.8-12.1-15.3-9.5-.6-22.7-.5-39.6.2-24.1,1-9.2,23.2-22.5,34.8-9.8,8.4-29.9,17.9-41.8,8.2-7.4-6-17.3-15.3-26.7-5.7-7.3,7.6-14.9,14.9-22.8,21.9-3.8,3.4-6.3,7.8-8.9,11.8-1.9,2.9-1.6,6.7.7,9.3,7.7,8.6,14.9,14.3,12.6,27.3-1.2,6.6-3.7,13.3-7.7,20.2-5.1,9-12.7,13-23,13-12.3,0-16.8,7.4-16.6,18.4.2,12.3.3,23.4.3,33.4,0,10.1,5,14.9,15,14.6,13.9-.4,22.1,6.4,27,18.4,5,11.9,9.5,21.3,0,33.2-3.2,4.1-6.1,8.2-8.5,12.3-2,3.3-1.5,7.5,1.2,10.2,8.3,8.5,17.1,17.4,26.2,26.6,3.7,3.7,7.7,6.5,12,8.3,2.1.9,4.5.6,6.3-.8,9-6.9,16.6-16.6,29.5-13.6h0Z"/>
  <path class="cls-1" d="M327.7,247.5c-.6-6.3-2.3-12.1-5.1-17.5-26.8-51.9-97.9-48.6-122.3,4.3-.8,1.7-2.4,2.8-4.2,2.9-3.3.2-4.8-1.1-4.4-3.8,3.1-19.8,24.2-38.2,39.8-45,17-7.4,35.3-8.3,54.9-2.6,25.5,7.4,51.5,35.2,51.9,62.6,0,1.3,1.6,2.1,2.6,1.3l8.7-6.7c1.9-1.4,4.5-1.3,6.2.3l1.2,1.2c2.2,2.2,2.1,4.3-.3,6.2-5.3,4.3-10.8,8.3-16.5,11.8-4.3,2.7-8.3,2-12.1-.8-5-3.7-9.9-7.1-14.6-10.2-2-1.3-2.6-4-1.3-6,2.1-3.2,4.8-4,8.3-2.2,2.1,1.1,3.5,3.4,5.7,5,1.1.8,1.6.5,1.4-.8h0Z"/>
  <path class="cls-1" d="M198.4,270.8c-1.1-.1-2,.9-1.7,2,4.3,14.9,13,30,25.4,39,35.8,26,84.5,15,102.1-26.8.9-2.2,2.6-3.3,5-3.3,3.2,0,5,2,5.5,5.9.1,1,0,2-.5,2.8-13.4,26-33.1,40.9-59.1,44.6-31.4,4.6-56.4-5.8-75-31.3-7-9.6-11.3-22.3-15-34-.4-1.4-2.2-1.7-3.1-.6-2.7,3.1-5.9,5.5-9.7,7.2-2.7,1.2-5.7-1-5.1-4,.6-3.6,3.6-6.6,7-8.5,5.1-3,9.6-6.1,13.5-9.6,1.8-1.6,4.6-1.7,6.5-.3l19.8,14.7c2.3,1.7,2.3,3.5,0,5.3-2.1,1.7-5.4,1.6-9.7-.4-.5-.3-1-.6-1.5-1-1.2-1.1-2.7-1.7-4.3-2h0Z"/>
</svg>