<?xml version="1.0" encoding="UTF-8"?>
<svg id="Layer_1" data-name="Layer 1" xmlns="http://www.w3.org/2000/svg" version="1.1" xmlns:xlink="http://www.w3.org/1999/xlink" viewBox="0 0 833.97 355.44">
  <defs>
    <style>
      .cls-1 {
        fill: #193308;
      }

      .cls-1, .cls-2, .cls-3, .cls-4, .cls-5, .cls-6, .cls-7, .cls-8, .cls-9 {
        stroke-width: 0px;
      }

      .cls-2 {
        fill: url(#linear-gradient);
      }

      .cls-3 {
        fill: #b9d432;
      }

      .cls-4 {
        fill: url(#linear-gradient-2);
      }

      .cls-5 {
        fill: url(#linear-gradient-3);
      }

      .cls-6 {
        fill: #9c3;
      }

      .cls-7 {
        fill: #030;
      }

      .cls-8 {
        fill: #fff;
      }

      .cls-9 {
        fill: #8bd11e;
      }
    </style>
    <linearGradient id="linear-gradient" x1="13.77" y1="-13.77" x2="187.62" y2="160.08" gradientUnits="userSpaceOnUse">
      <stop offset="0" stop-color="#afc98a"/>
      <stop offset=".57" stop-color="#8dc63f"/>
      <stop offset=".78" stop-color="#245c00"/>
      <stop offset=".88" stop-color="#20693f"/>
      <stop offset=".95" stop-color="#1b3b08"/>
    </linearGradient>
    <linearGradient id="linear-gradient-2" x1="68.29" y1="125.78" x2="151.97" y2="209.47" xlink:href="#linear-gradient"/>
    <linearGradient id="linear-gradient-3" x1="143.64" y1="225.35" x2="164.65" y2="246.35" xlink:href="#linear-gradient"/>
  </defs>
  <g>
    <path class="cls-1" d="M241.55,179.75h37.24c0,3.83-.16,7.31-.48,10.43-.32,3.13-.96,6.03-1.91,8.71-1.34,3.77-3.16,7.1-5.46,10-2.3,2.9-4.99,5.33-8.09,7.28-3.1,1.95-6.49,3.43-10.2,4.45-3.7,1.02-7.6,1.53-11.68,1.53-5.62,0-10.74-.93-15.37-2.78-4.63-1.85-8.6-4.45-11.92-7.8-3.32-3.35-5.9-7.37-7.75-12.06-1.85-4.69-2.78-9.88-2.78-15.56s.91-10.77,2.73-15.46c1.82-4.69,4.4-8.7,7.75-12.01,3.35-3.32,7.39-5.9,12.11-7.75,4.72-1.85,9.99-2.78,15.8-2.78,7.53,0,14.14,1.63,19.82,4.88,5.68,3.26,10.18,8.3,13.5,15.13l-17.81,7.37c-1.66-3.96-3.81-6.8-6.46-8.52-2.65-1.72-5.66-2.58-9.05-2.58-2.81,0-5.36.53-7.66,1.58-2.3,1.05-4.26,2.55-5.89,4.5-1.63,1.95-2.9,4.29-3.83,7.04-.93,2.74-1.39,5.81-1.39,9.19,0,3.06.4,5.9,1.2,8.52.8,2.62,1.99,4.88,3.59,6.8,1.59,1.91,3.57,3.4,5.94,4.45,2.36,1.05,5.11,1.58,8.23,1.58,1.85,0,3.64-.21,5.36-.62,1.72-.41,3.27-1.08,4.64-2.01,1.37-.92,2.5-2.12,3.4-3.59.89-1.47,1.5-3.26,1.82-5.36h-15.41v-14.55Z"/>
    <path class="cls-1" d="M350.68,220.15h-23.36l-17.9-27.76v27.76h-18.76v-72.18h29.2c4.02,0,7.53.59,10.53,1.77,3,1.18,5.47,2.79,7.42,4.83,1.95,2.04,3.41,4.4,4.4,7.08.99,2.68,1.48,5.55,1.48,8.62,0,5.49-1.33,9.94-3.97,13.35-2.65,3.41-6.56,5.73-11.73,6.94l22.69,29.58ZM309.42,180.23h3.54c3.7,0,6.54-.77,8.52-2.3,1.98-1.53,2.97-3.73,2.97-6.61s-.99-5.07-2.97-6.61c-1.98-1.53-4.82-2.3-8.52-2.3h-3.54v17.81Z"/>
    <path class="cls-1" d="M397.44,163.86h-22.31v12.06h21.06v15.89h-21.06v12.45h22.31v15.89h-41.07v-72.18h41.07v15.89Z"/>
    <path class="cls-1" d="M452.01,163.86h-22.31v12.06h21.06v15.89h-21.06v12.45h22.31v15.89h-41.07v-72.18h41.07v15.89Z"/>
    <path class="cls-1" d="M465.5,220.15v-72.18h18.76l34.65,44.13v-44.13h18.67v72.18h-18.67l-34.65-44.13v44.13h-18.76Z"/>
    <path class="cls-6" d="M557.35,147.98l18.79,48.24,19.63-51.75,18.79,51.75,19.96-48.24h11.83l-32.25,76.75-18.56-51.14-19.35,51.19-30.66-76.8h11.83Z"/>
    <path class="cls-9" d="M666.22,147.98v72.17h-10.89v-72.17h10.89Z"/>
    <path class="cls-9" d="M683.56,220.15v-77.08l52.63,55.06v-50.16h10.89v76.57l-52.63-54.92v50.53h-10.89Z"/>
    <path class="cls-9" d="M802.25,182.57h29.82v2.38c0,5.42-.64,10.22-1.92,14.4-1.25,3.86-3.35,7.48-6.31,10.84-6.7,7.54-15.22,11.31-25.57,11.31s-18.74-3.65-25.94-10.94c-7.2-7.32-10.8-16.11-10.8-26.36s3.66-19.35,10.98-26.64c7.32-7.32,16.24-10.98,26.74-10.98,5.64,0,10.91,1.15,15.8,3.46,4.67,2.31,9.27,6.05,13.79,11.22l-7.76,7.43c-5.92-7.88-13.13-11.83-21.64-11.83-7.64,0-14.04,2.63-19.21,7.9-5.17,5.17-7.76,11.66-7.76,19.45s2.88,14.66,8.65,19.87c5.39,4.83,11.23,7.25,17.53,7.25,5.36,0,10.17-1.81,14.44-5.42,4.27-3.65,6.65-8.01,7.15-13.09h-18v-10.24Z"/>
  </g>
  <g>
    <path class="cls-9" d="M224.06,247.09h-14.79v8.86h14.36v5.23h-14.36v12.33h14.79v5.23h-20.35v-36.88h20.35v5.23Z"/>
    <path class="cls-9" d="M241.16,278.74v-39.39l26.9,28.14v-25.63h5.57v39.13l-26.9-28.07v25.82h-5.57Z"/>
    <path class="cls-9" d="M312.6,247.09h-14.79v8.86h14.36v5.23h-14.36v12.33h14.79v5.23h-20.35v-36.88h20.35v5.23Z"/>
    <path class="cls-9" d="M342.18,263.02l11.42,15.72h-6.81l-10.53-15.1h-1v15.1h-5.57v-36.88h6.52c4.87,0,8.39.92,10.56,2.75,2.39,2.04,3.58,4.73,3.58,8.07,0,2.61-.75,4.86-2.25,6.74-1.5,1.88-3.47,3.08-5.92,3.61ZM335.26,258.79h1.77c5.27,0,7.91-2.01,7.91-6.04,0-3.77-2.56-5.66-7.69-5.66h-1.98v11.71Z"/>
    <path class="cls-9" d="M387.06,259.53h15.24v1.22c0,2.77-.33,5.22-.98,7.36-.64,1.97-1.71,3.82-3.22,5.54-3.42,3.85-7.78,5.78-13.07,5.78s-9.58-1.86-13.26-5.59c-3.68-3.74-5.52-8.23-5.52-13.47s1.87-9.89,5.61-13.62c3.74-3.74,8.3-5.61,13.66-5.61,2.88,0,5.57.59,8.07,1.77,2.39,1.18,4.74,3.09,7.05,5.73l-3.97,3.8c-3.03-4.03-6.71-6.04-11.06-6.04-3.9,0-7.17,1.35-9.82,4.04-2.64,2.64-3.97,5.96-3.97,9.94s1.47,7.49,4.42,10.15c2.75,2.47,5.74,3.7,8.96,3.7,2.74,0,5.2-.92,7.38-2.77,2.18-1.86,3.4-4.09,3.65-6.69h-9.2v-5.23Z"/>
    <path class="cls-9" d="M425.32,262.81l-12.04-20.95h6.4l8.43,14.74,8.46-14.74h6.4l-12.09,20.95v15.93h-5.57v-15.93Z"/>
    <path class="cls-9" d="M502.74,247.35l-4.51,2.68c-.84-1.46-1.65-2.42-2.41-2.87-.8-.51-1.82-.76-3.08-.76-1.54,0-2.83.44-3.85,1.31-1.02.86-1.53,1.94-1.53,3.25,0,1.8,1.34,3.25,4.01,4.35l3.68,1.5c2.99,1.21,5.18,2.69,6.57,4.43,1.39,1.74,2.08,3.88,2.08,6.41,0,3.39-1.13,6.2-3.39,8.41-2.28,2.23-5.1,3.34-8.48,3.34-3.2,0-5.84-.95-7.93-2.84-2.05-1.89-3.34-4.56-3.85-8l5.64-1.24c.25,2.17.7,3.66,1.34,4.49,1.15,1.59,2.82,2.39,5.02,2.39,1.74,0,3.18-.58,4.32-1.74,1.15-1.16,1.72-2.64,1.72-4.42,0-.72-.1-1.37-.3-1.97-.2-.6-.51-1.15-.93-1.65-.42-.5-.97-.97-1.64-1.41-.67-.44-1.47-.86-2.39-1.25l-3.56-1.48c-5.05-2.13-7.57-5.26-7.57-9.36,0-2.77,1.06-5.09,3.18-6.95,2.12-1.88,4.75-2.82,7.91-2.82,4.25,0,7.57,2.07,9.96,6.21Z"/>
    <path class="cls-9" d="M518.36,260.13c0-5.19,1.9-9.65,5.71-13.38,3.79-3.73,8.34-5.59,13.66-5.59s9.76,1.88,13.52,5.64c3.77,3.76,5.66,8.27,5.66,13.54s-1.9,9.8-5.69,13.5c-3.81,3.71-8.4,5.57-13.78,5.57-4.76,0-9.04-1.65-12.83-4.94-4.17-3.65-6.26-8.42-6.26-14.33ZM523.97,260.2c0,4.08,1.37,7.43,4.11,10.06,2.72,2.63,5.87,3.94,9.44,3.94,3.87,0,7.13-1.34,9.79-4.01,2.66-2.71,3.99-6,3.99-9.89s-1.31-7.23-3.94-9.89c-2.61-2.68-5.84-4.01-9.7-4.01s-7.08,1.34-9.72,4.01c-2.64,2.64-3.97,5.91-3.97,9.79Z"/>
    <path class="cls-9" d="M579.26,241.86v31.65h10.85v5.23h-16.41v-36.88h5.57Z"/>
    <path class="cls-9" d="M609.61,241.86v22.22c0,3.17.52,5.49,1.55,6.95,1.54,2.12,3.72,3.18,6.52,3.18s5-1.06,6.55-3.18c1.03-1.42,1.55-3.73,1.55-6.95v-22.22h5.57v23.74c0,3.89-1.21,7.09-3.63,9.6-2.72,2.8-6.07,4.2-10.03,4.2s-7.3-1.4-10.01-4.2c-2.42-2.52-3.63-5.72-3.63-9.6v-23.74h5.57Z"/>
    <path class="cls-9" d="M660.15,247.09v31.65h-5.57v-31.65h-8.48v-5.23h22.5v5.23h-8.46Z"/>
    <path class="cls-9" d="M688.93,241.86v36.88h-5.57v-36.88h5.57Z"/>
    <path class="cls-9" d="M705.73,260.13c0-5.19,1.9-9.65,5.71-13.38,3.79-3.73,8.34-5.59,13.66-5.59s9.76,1.88,13.52,5.64c3.77,3.76,5.66,8.27,5.66,13.54s-1.9,9.8-5.69,13.5c-3.81,3.71-8.4,5.57-13.78,5.57-4.76,0-9.04-1.65-12.83-4.94-4.17-3.65-6.26-8.42-6.26-14.33ZM711.35,260.2c0,4.08,1.37,7.43,4.11,10.06,2.72,2.63,5.87,3.94,9.44,3.94,3.87,0,7.13-1.34,9.79-4.01,2.66-2.71,3.99-6,3.99-9.89s-1.31-7.23-3.94-9.89c-2.61-2.68-5.84-4.01-9.7-4.01s-7.08,1.34-9.72,4.01c-2.64,2.64-3.97,5.91-3.97,9.79Z"/>
    <path class="cls-9" d="M761.07,278.74v-39.39l26.9,28.14v-25.63h5.57v39.13l-26.9-28.07v25.82h-5.57Z"/>
    <path class="cls-9" d="M833.01,247.35l-4.51,2.68c-.84-1.46-1.65-2.42-2.41-2.87-.8-.51-1.82-.76-3.08-.76-1.54,0-2.83.44-3.85,1.31-1.02.86-1.53,1.94-1.53,3.25,0,1.8,1.34,3.25,4.01,4.35l3.68,1.5c2.99,1.21,5.18,2.69,6.57,4.43,1.39,1.74,2.08,3.88,2.08,6.41,0,3.39-1.13,6.2-3.39,8.41-2.28,2.23-5.1,3.34-8.48,3.34-3.2,0-5.84-.95-7.93-2.84-2.05-1.89-3.34-4.56-3.85-8l5.64-1.24c.25,2.17.7,3.66,1.34,4.49,1.15,1.59,2.82,2.39,5.02,2.39,1.74,0,3.18-.58,4.32-1.74,1.15-1.16,1.72-2.64,1.72-4.42,0-.72-.1-1.37-.3-1.97-.2-.6-.51-1.15-.93-1.65-.42-.5-.97-.97-1.64-1.41s-1.47-.86-2.39-1.25l-3.56-1.48c-5.05-2.13-7.57-5.26-7.57-9.36,0-2.77,1.06-5.09,3.18-6.95,2.12-1.88,4.75-2.82,7.91-2.82,4.25,0,7.57,2.07,9.96,6.21Z"/>
  </g>
  <g>
    <path class="cls-2" d="M211.22,135.7c-.41-1.19-.83-2.37-1.27-3.54-15.92-42.26-42.09-59.99-71.27-68.75C96.51,50.75,54.88,35.39,15.1,9.56,10.76,6.75,6.38,4.04,0,0c1.51,8.07,2.14,13.11,3.38,17.76,6.92,26.13,18.99,44.96,34.48,59.17,19.27,17.67,40.83,22.22,62.35,26.77,27.83,5.88,55.37,13.98,81.07,31.98,4.27,2.99,8.43,6.4,12.62,10.08,4.19-3.87,9.13-6.93,14.85-9.17.82-.32,1.64-.62,2.49-.9Z"/>
    <path class="cls-9" d="M92.67,109.08c-25.52-4.67-50.64-12.47-76.4-16.26-2.04-.3-4.13-.39-7.85-.71,2.55,5.73,3.98,9.45,5.72,12.76,16.35,31,38.27,44.82,63.22,46.19,35.73,1.97,71.7-3.16,107.11,7.25,1.54-3.06,3.37-5.85,5.48-8.4-30.48-24.41-63.47-34.64-97.28-40.83Z"/>
    <path class="cls-4" d="M135.82,157.73c-33.63-1.12-67.33,2.29-101,3.89-.63.03-.4.02-2.55.18,23.31,30.48,49.58,42.25,78.85,33.37,20.69-6.28,41.4-12.97,62.3-16.8,1.89-.35,3.8-.53,5.71-.59.36-4.41,1.19-8.58,2.47-12.51-15.24-3.63-30.49-7.03-45.78-7.54Z"/>
    <path class="cls-9" d="M178.91,182.91c-37.13,4.35-74.52,23.64-111.02,37.23,1.24,1.61,3.87,2.39,4.56,2.66,24.04,9.52,47.86,11.86,71.32-4.37,8.58-5.94,17.33-11.73,26.34-15.66,3.56-1.55,7.14-2.98,10.74-4.34-1.3-4.77-1.95-9.88-1.95-15.34,0-.06,0-.12,0-.19Z"/>
    <path class="cls-3" d="M209.74,184.66c-.05-.05-.09-.1-.14-.15-.01.07-.02.14-.04.21.06-.02.12-.04.17-.06Z"/>
    <path class="cls-5" d="M182.17,202.58c-24.06,11.48-45.24,35.79-69.18,53.42,19.62,6.27,42.83-.64,55.41-13.63,7.81-8.06,15.75-15.83,23.72-23.54-4.05-4.27-7.23-9.33-9.55-15.19-.14-.35-.27-.71-.4-1.06Z"/>
  </g>
  <rect class="cls-7" x="198.8" y="302.89" width="632.9" height="52.55"/>
  <g>
    <path class="cls-8" d="M224.69,329.86l-8.47-12.07h7.2l4.31,6.34,4.28-6.34h7.2l-8.5,12.07v11.14h-6.03v-11.14Z"/>
    <path class="cls-8" d="M238.63,329.4c0-1.73.32-3.33.96-4.82.64-1.49,1.52-2.78,2.65-3.9,1.13-1.11,2.48-1.98,4.05-2.6,1.57-.62,3.3-.94,5.19-.94s3.59.31,5.17.94c1.58.63,2.94,1.49,4.08,2.6s2.03,2.41,2.66,3.9c.64,1.49.95,3.09.95,4.82s-.32,3.33-.95,4.82c-.64,1.49-1.53,2.78-2.66,3.9-1.14,1.11-2.5,1.97-4.08,2.6-1.58.63-3.31.94-5.17.94s-3.62-.31-5.19-.94c-1.57-.63-2.92-1.49-4.05-2.6-1.13-1.11-2.01-2.41-2.65-3.9-.64-1.49-.96-3.1-.96-4.82ZM244.95,329.4c0,.92.18,1.77.52,2.56s.82,1.46,1.42,2.03,1.29,1.02,2.08,1.34c.79.32,1.63.48,2.51.48s1.72-.16,2.51-.48c.79-.32,1.49-.77,2.09-1.34.61-.57,1.08-1.25,1.43-2.03.35-.78.52-1.63.52-2.56s-.17-1.77-.52-2.56c-.35-.78-.83-1.46-1.43-2.04-.61-.57-1.3-1.02-2.09-1.34-.79-.31-1.63-.47-2.51-.47s-1.72.16-2.51.47c-.79.32-1.48.77-2.08,1.34-.6.58-1.07,1.25-1.42,2.04s-.52,1.63-.52,2.56Z"/>
    <path class="cls-8" d="M274.2,317.79v12.63c0,.67.02,1.37.08,2.08.05.71.2,1.35.46,1.92.26.57.66,1.04,1.21,1.4.56.36,1.33.54,2.34.54s1.78-.18,2.32-.54c.54-.36.95-.83,1.22-1.4.27-.57.43-1.22.48-1.92.05-.71.08-1.4.08-2.08v-12.63h6v13.45c0,3.61-.83,6.25-2.48,7.92-1.65,1.66-4.19,2.49-7.62,2.49s-5.97-.83-7.64-2.49c-1.66-1.66-2.49-4.3-2.49-7.92v-13.45h6.04Z"/>
    <path class="cls-8" d="M312.56,341.01h-7.51l-5.76-8.93v8.93h-6.04v-23.22h9.39c1.29,0,2.42.19,3.39.57.96.38,1.76.9,2.39,1.55.62.66,1.1,1.42,1.42,2.28s.48,1.79.48,2.77c0,1.77-.43,3.2-1.28,4.3-.85,1.09-2.11,1.84-3.77,2.23l7.3,9.51ZM299.29,328.17h1.14c1.19,0,2.1-.24,2.74-.74.64-.49.95-1.2.95-2.13s-.32-1.63-.95-2.13c-.64-.49-1.55-.74-2.74-.74h-1.14v5.73Z"/>
    <path class="cls-8" d="M331.59,341.01h-6.04v-23.22h9.61c2.61,0,4.6.68,5.99,2.04,1.39,1.36,2.08,3.26,2.08,5.73s-.69,4.37-2.08,5.72c-1.38,1.36-3.38,2.04-5.99,2.04h-3.57v7.69ZM331.59,328.45h2c2.22,0,3.33-.96,3.33-2.89s-1.11-2.9-3.33-2.9h-2v5.79Z"/>
    <path class="cls-8" d="M359.36,336.97h-8.62l-1.39,4.03h-6.44l8.84-23.22h6.59l8.84,23.22h-6.44l-1.39-4.03ZM357.76,332.39l-2.71-7.73-2.71,7.73h5.42Z"/>
    <path class="cls-8" d="M389.13,341.01h-7.51l-5.76-8.93v8.93h-6.04v-23.22h9.39c1.29,0,2.42.19,3.39.57.96.38,1.76.9,2.39,1.55.62.66,1.1,1.42,1.42,2.28.32.86.48,1.79.48,2.77,0,1.77-.43,3.2-1.28,4.3-.85,1.09-2.11,1.84-3.77,2.23l7.3,9.51ZM375.87,328.17h1.14c1.19,0,2.1-.24,2.74-.74.64-.49.95-1.2.95-2.13s-.32-1.63-.95-2.13c-.64-.49-1.55-.74-2.74-.74h-1.14v5.73Z"/>
    <path class="cls-8" d="M400.5,322.9v18.1h-6.04v-18.1h-4.96v-5.11h15.95v5.11h-4.96Z"/>
    <path class="cls-8" d="M408.13,341.01v-23.22h6.04l11.15,14.2v-14.2h6v23.22h-6l-11.15-14.19v14.19h-6.04Z"/>
    <path class="cls-8" d="M449.39,322.9h-7.17v3.88h6.77v5.11h-6.77v4h7.17v5.11h-13.21v-23.22h13.21v5.11Z"/>
    <path class="cls-8" d="M473.03,341.01h-7.51l-5.76-8.93v8.93h-6.04v-23.22h9.39c1.29,0,2.42.19,3.39.57.96.38,1.76.9,2.39,1.55.62.66,1.1,1.42,1.42,2.28s.48,1.79.48,2.77c0,1.77-.43,3.2-1.28,4.3-.85,1.09-2.11,1.84-3.77,2.23l7.3,9.51ZM459.76,328.17h1.14c1.19,0,2.1-.24,2.74-.74.64-.49.95-1.2.95-2.13s-.32-1.63-.95-2.13c-.64-.49-1.55-.74-2.74-.74h-1.14v5.73Z"/>
    <path class="cls-8" d="M495.33,317.79v23.22h-6.04v-23.22h6.04Z"/>
    <path class="cls-8" d="M500.19,341.01v-23.22h6.04l11.15,14.2v-14.2h6v23.22h-6l-11.15-14.19v14.19h-6.04Z"/>
    <path class="cls-8" d="M551.46,323.74c-.66-.54-1.31-.93-1.97-1.19-.66-.26-1.29-.39-1.91-.39-.78,0-1.42.19-1.91.55-.49.37-.74.86-.74,1.45,0,.41.12.75.37,1.01.25.27.57.5.97.69.4.2.85.37,1.36.51.5.14,1,.3,1.49.46,1.97.66,3.41,1.54,4.33,2.63.91,1.1,1.37,2.53,1.37,4.3,0,1.19-.2,2.26-.6,3.23-.4.97-.99,1.79-1.75,2.48-.77.69-1.71,1.22-2.83,1.6-1.12.38-2.39.57-3.8.57-2.93,0-5.65-.87-8.16-2.62l2.59-4.86c.9.8,1.8,1.4,2.68,1.79s1.76.58,2.62.58c.99,0,1.72-.22,2.2-.67.48-.45.72-.97.72-1.54,0-.35-.06-.65-.18-.91-.12-.26-.33-.49-.62-.71-.29-.22-.66-.42-1.12-.6-.46-.19-1.02-.39-1.68-.62-.78-.25-1.54-.52-2.29-.82-.75-.3-1.42-.69-2-1.19-.59-.49-1.06-1.11-1.42-1.86-.36-.75-.54-1.7-.54-2.85s.19-2.19.57-3.12c.38-.94.91-1.74,1.6-2.4.69-.67,1.53-1.19,2.52-1.56,1-.37,2.11-.55,3.34-.55,1.15,0,2.35.16,3.6.48,1.25.31,2.45.78,3.6,1.4l-2.4,4.71Z"/>
    <path class="cls-8" d="M572.39,336.97h-8.62l-1.39,4.03h-6.44l8.84-23.22h6.59l8.84,23.22h-6.44l-1.39-4.03ZM570.8,332.39l-2.71-7.73-2.71,7.73h5.42Z"/>
    <path class="cls-8" d="M585.2,317.79l5.6,14.14,5.64-14.14h6.56l-9.79,23.22h-4.8l-9.76-23.22h6.56Z"/>
    <path class="cls-8" d="M611.47,317.79v23.22h-6.04v-23.22h6.04Z"/>
    <path class="cls-8" d="M616.33,341.01v-23.22h6.04l11.15,14.2v-14.2h6v23.22h-6l-11.15-14.19v14.19h-6.04Z"/>
    <path class="cls-8" d="M656.11,328.01h11.98c0,1.23-.05,2.35-.15,3.36-.1,1-.31,1.94-.61,2.8-.43,1.21-1.02,2.28-1.76,3.21-.74.94-1.6,1.72-2.6,2.34-1,.63-2.09,1.1-3.28,1.43s-2.44.49-3.76.49c-1.81,0-3.45-.3-4.94-.89-1.49-.6-2.77-1.43-3.83-2.51-1.07-1.08-1.9-2.37-2.49-3.88-.6-1.51-.9-3.18-.9-5.01s.29-3.46.88-4.97c.58-1.51,1.42-2.8,2.49-3.86,1.08-1.07,2.38-1.9,3.9-2.49,1.52-.6,3.21-.89,5.08-.89,2.42,0,4.55.52,6.37,1.57,1.83,1.05,3.27,2.67,4.34,4.87l-5.73,2.37c-.53-1.28-1.23-2.19-2.08-2.74-.85-.55-1.82-.83-2.91-.83-.9,0-1.72.17-2.46.5-.74.34-1.37.82-1.89,1.45-.52.63-.94,1.38-1.23,2.26-.3.88-.45,1.87-.45,2.95,0,.98.13,1.9.39,2.74.26.84.64,1.57,1.16,2.19.51.62,1.15,1.09,1.91,1.43.76.34,1.64.51,2.65.51.6,0,1.17-.07,1.72-.2.55-.13,1.05-.35,1.49-.64.44-.3.81-.69,1.09-1.16s.48-1.05.58-1.72h-4.96v-4.68Z"/>
    <path class="cls-8" d="M695.58,322.9h-7.17v3.88h6.77v5.11h-6.77v4h7.17v5.11h-13.21v-23.22h13.21v5.11Z"/>
    <path class="cls-8" d="M699.92,341.01v-23.22h6.04l11.15,14.2v-14.2h6v23.22h-6l-11.15-14.19v14.19h-6.04Z"/>
    <path class="cls-8" d="M741.18,322.9h-7.17v3.88h6.77v5.11h-6.77v4h7.17v5.11h-13.21v-23.22h13.21v5.11Z"/>
    <path class="cls-8" d="M764.83,341.01h-7.51l-5.76-8.93v8.93h-6.04v-23.22h9.39c1.29,0,2.42.19,3.39.57.96.38,1.76.9,2.39,1.55.62.66,1.1,1.42,1.42,2.28s.48,1.79.48,2.77c0,1.77-.43,3.2-1.28,4.3-.85,1.09-2.11,1.84-3.77,2.23l7.3,9.51ZM751.56,328.17h1.14c1.19,0,2.1-.24,2.74-.74.64-.49.95-1.2.95-2.13s-.32-1.63-.95-2.13c-.64-.49-1.55-.74-2.74-.74h-1.14v5.73Z"/>
    <path class="cls-8" d="M778.34,328.01h11.98c0,1.23-.05,2.35-.15,3.36-.1,1-.31,1.94-.61,2.8-.43,1.21-1.02,2.28-1.76,3.21-.74.94-1.6,1.72-2.6,2.34-1,.63-2.09,1.1-3.28,1.43s-2.44.49-3.76.49c-1.81,0-3.45-.3-4.94-.89-1.49-.6-2.77-1.43-3.83-2.51-1.07-1.08-1.9-2.37-2.49-3.88-.6-1.51-.9-3.18-.9-5.01s.29-3.46.88-4.97c.58-1.51,1.42-2.8,2.49-3.86,1.08-1.07,2.38-1.9,3.9-2.49,1.52-.6,3.21-.89,5.08-.89,2.42,0,4.55.52,6.37,1.57,1.83,1.05,3.27,2.67,4.34,4.87l-5.73,2.37c-.53-1.28-1.23-2.19-2.08-2.74-.85-.55-1.82-.83-2.91-.83-.9,0-1.72.17-2.46.5-.74.34-1.37.82-1.89,1.45-.52.63-.94,1.38-1.23,2.26-.3.88-.45,1.87-.45,2.95,0,.98.13,1.9.39,2.74.26.84.64,1.57,1.16,2.19.51.62,1.15,1.09,1.91,1.43.76.34,1.64.51,2.65.51.6,0,1.17-.07,1.72-.2.55-.13,1.05-.35,1.49-.64.44-.3.81-.69,1.09-1.16.29-.47.48-1.05.58-1.72h-4.96v-4.68Z"/>
    <path class="cls-8" d="M798.21,329.86l-8.47-12.07h7.2l4.31,6.34,4.28-6.34h7.2l-8.5,12.07v11.14h-6.03v-11.14Z"/>
  </g>
</svg>