<?xml version="1.0" encoding="UTF-8"?>
<svg id="Layer_1" data-name="Layer 1" xmlns="http://www.w3.org/2000/svg" version="1.1" xmlns:xlink="http://www.w3.org/1999/xlink" viewBox="0 0 629.12 390.62">
  <defs>
    <style>
      .cls-1 {
        fill: url(#linear-gradient);
      }

      .cls-1, .cls-2, .cls-3, .cls-4, .cls-5, .cls-6, .cls-7 {
        stroke-width: 0px;
      }

      .cls-2 {
        fill: #8cc63f;
      }

      .cls-3 {
        fill: #b8d232;
      }

      .cls-4 {
        fill: url(#linear-gradient-2);
      }

      .cls-5 {
        fill: url(#linear-gradient-3);
      }

      .cls-6 {
        fill: #030;
      }

      .cls-7 {
        fill: #fff;
      }
    </style>
    <linearGradient id="linear-gradient" x1="45.69" y1="39.03" x2="147.94" y2="141.27" gradientUnits="userSpaceOnUse">
      <stop offset=".08" stop-color="#fff"/>
      <stop offset=".57" stop-color="#8dc540"/>
      <stop offset=".78" stop-color="#245c00"/>
      <stop offset=".88" stop-color="#216a40"/>
      <stop offset=".95" stop-color="#233b1b"/>
    </linearGradient>
    <linearGradient id="linear-gradient-2" x1="77.75" y1="121.1" x2="126.97" y2="170.32" xlink:href="#linear-gradient"/>
    <linearGradient id="linear-gradient-3" x1="122.07" y1="179.66" x2="134.42" y2="192.01" xlink:href="#linear-gradient"/>
  </defs>
  <g>
    <path class="cls-7" d="M179.65,152.84h21.9c0,2.25-.09,4.3-.28,6.14-.19,1.84-.56,3.55-1.13,5.12-.79,2.22-1.86,4.18-3.21,5.88-1.35,1.71-2.94,3.13-4.76,4.28-1.82,1.15-3.82,2.02-6,2.62-2.18.6-4.47.9-6.87.9-3.3,0-6.32-.54-9.04-1.63-2.72-1.09-5.06-2.62-7.01-4.59-1.95-1.97-3.47-4.34-4.56-7.09-1.09-2.76-1.63-5.81-1.63-9.15s.53-6.33,1.6-9.09c1.07-2.76,2.59-5.11,4.56-7.07,1.97-1.95,4.34-3.47,7.12-4.56,2.78-1.09,5.87-1.63,9.29-1.63,4.43,0,8.31.96,11.66,2.87,3.34,1.91,5.99,4.88,7.94,8.9l-10.47,4.34c-.98-2.33-2.24-4-3.8-5.01-1.56-1.01-3.33-1.52-5.32-1.52-1.65,0-3.15.31-4.5.93-1.35.62-2.51,1.5-3.46,2.65-.96,1.15-1.71,2.52-2.25,4.14-.54,1.61-.82,3.42-.82,5.41,0,1.8.23,3.47.7,5.01.47,1.54,1.17,2.87,2.11,4,.94,1.13,2.1,2,3.49,2.62,1.39.62,3,.93,4.84.93,1.09,0,2.14-.12,3.15-.37,1.01-.24,1.92-.64,2.73-1.18.81-.54,1.47-1.25,2-2.11.53-.86.88-1.91,1.07-3.15h-9.07v-8.56Z"/>
    <path class="cls-7" d="M243.84,176.6h-13.74l-10.53-16.33v16.33h-11.04v-42.45h17.17c2.36,0,4.43.35,6.19,1.04,1.76.7,3.22,1.64,4.36,2.84,1.14,1.2,2.01,2.59,2.59,4.17.58,1.58.87,3.27.87,5.07,0,3.23-.78,5.85-2.34,7.85-1.56,2.01-3.86,3.37-6.9,4.08l13.34,17.4ZM219.57,153.12h2.08c2.18,0,3.85-.45,5.01-1.35,1.16-.9,1.75-2.2,1.75-3.88s-.58-2.98-1.75-3.89c-1.16-.9-2.83-1.35-5.01-1.35h-2.08v10.47Z"/>
    <path class="cls-7" d="M271.34,143.5h-13.12v7.09h12.39v9.35h-12.39v7.32h13.12v9.35h-24.15v-42.45h24.15v9.35Z"/>
    <path class="cls-7" d="M303.43,143.5h-13.12v7.09h12.39v9.35h-12.39v7.32h13.12v9.35h-24.15v-42.45h24.15v9.35Z"/>
    <path class="cls-7" d="M311.37,176.6v-42.45h11.04l20.38,25.96v-25.96h10.98v42.45h-10.98l-20.38-25.96v25.96h-11.04Z"/>
    <path class="cls-2" d="M365.39,134.16l11.05,28.37,11.55-30.43,11.05,30.43,11.74-28.37h6.96l-18.97,45.14-10.91-30.08-11.38,30.1-18.03-45.17h6.96Z"/>
    <path class="cls-2" d="M429.42,134.16v42.45h-6.41v-42.45h6.41Z"/>
    <path class="cls-2" d="M439.62,176.6v-45.33l30.96,32.39v-29.5h6.41v45.03l-30.96-32.3v29.72h-6.41Z"/>
    <path class="cls-2" d="M509.42,154.5h17.54v1.4c0,3.19-.38,6.01-1.13,8.47-.73,2.27-1.97,4.4-3.71,6.38-3.94,4.44-8.95,6.65-15.04,6.65s-11.02-2.14-15.26-6.43c-4.23-4.31-6.35-9.48-6.35-15.51s2.15-11.38,6.46-15.67c4.31-4.31,9.55-6.46,15.73-6.46,3.32,0,6.41.68,9.29,2.03,2.75,1.36,5.45,3.56,8.11,6.6l-4.56,4.37c-3.48-4.64-7.73-6.96-12.73-6.96-4.49,0-8.26,1.55-11.3,4.65-3.04,3.04-4.56,6.86-4.56,11.44s1.7,8.62,5.09,11.68c3.17,2.84,6.61,4.26,10.31,4.26,3.15,0,5.98-1.06,8.5-3.19,2.51-2.14,3.91-4.71,4.21-7.7h-10.58v-6.02Z"/>
  </g>
  <g>
    <path class="cls-2" d="M169.37,192.45h-8.7v5.21h8.44v3.08h-8.44v7.25h8.7v3.08h-11.97v-21.69h11.97v3.08Z"/>
    <path class="cls-2" d="M179.42,211.06v-23.17l15.82,16.55v-15.08h3.27v23.01l-15.82-16.51v15.19h-3.27Z"/>
    <path class="cls-2" d="M221.44,192.45h-8.7v5.21h8.44v3.08h-8.44v7.25h8.7v3.08h-11.97v-21.69h11.97v3.08Z"/>
    <path class="cls-2" d="M238.84,201.82l6.72,9.24h-4l-6.2-8.88h-.59v8.88h-3.27v-21.69h3.84c2.87,0,4.94.54,6.21,1.62,1.4,1.2,2.11,2.78,2.11,4.75,0,1.54-.44,2.86-1.32,3.96-.88,1.11-2.04,1.81-3.48,2.12ZM234.77,199.33h1.04c3.1,0,4.65-1.18,4.65-3.55,0-2.22-1.51-3.33-4.52-3.33h-1.17v6.88Z"/>
    <path class="cls-2" d="M265.23,199.77h8.96v.72c0,1.63-.19,3.07-.58,4.33-.37,1.16-1.01,2.25-1.9,3.26-2.01,2.27-4.58,3.4-7.69,3.4s-5.63-1.1-7.8-3.29c-2.16-2.2-3.25-4.84-3.25-7.92s1.1-5.82,3.3-8.01c2.2-2.2,4.88-3.3,8.04-3.3,1.7,0,3.28.35,4.75,1.04,1.4.69,2.79,1.82,4.14,3.37l-2.33,2.23c-1.78-2.37-3.95-3.55-6.5-3.55-2.29,0-4.22.79-5.77,2.37-1.55,1.55-2.33,3.5-2.33,5.84s.87,4.41,2.6,5.97c1.62,1.45,3.38,2.18,5.27,2.18,1.61,0,3.06-.54,4.34-1.63,1.28-1.1,2-2.41,2.15-3.93h-5.41v-3.08Z"/>
    <path class="cls-2" d="M287.74,201.69l-7.08-12.32h3.77l4.96,8.67,4.97-8.67h3.77l-7.11,12.32v9.37h-3.27v-9.37Z"/>
    <path class="cls-2" d="M333.27,192.6l-2.66,1.57c-.5-.86-.97-1.42-1.42-1.69-.47-.3-1.07-.45-1.81-.45-.91,0-1.66.26-2.26.77-.6.51-.9,1.14-.9,1.91,0,1.06.79,1.91,2.36,2.56l2.16.89c1.76.71,3.05,1.58,3.86,2.61.81,1.03,1.22,2.28,1.22,3.77,0,2-.67,3.64-2,4.95-1.34,1.31-3,1.97-4.99,1.97-1.88,0-3.44-.56-4.66-1.67-1.21-1.11-1.96-2.68-2.26-4.71l3.32-.73c.15,1.27.41,2.15.79,2.64.67.94,1.66,1.4,2.95,1.4,1.02,0,1.87-.34,2.54-1.03.67-.68,1.01-1.55,1.01-2.6,0-.42-.06-.81-.18-1.16-.12-.35-.3-.67-.55-.97-.25-.29-.57-.57-.96-.83s-.86-.5-1.4-.74l-2.09-.87c-2.97-1.25-4.45-3.09-4.45-5.51,0-1.63.62-2.99,1.87-4.09,1.25-1.11,2.8-1.66,4.65-1.66,2.5,0,4.45,1.22,5.86,3.65Z"/>
    <path class="cls-2" d="M342.46,200.12c0-3.05,1.12-5.68,3.36-7.87,2.23-2.19,4.91-3.29,8.04-3.29s5.74,1.11,7.95,3.32c2.22,2.21,3.33,4.87,3.33,7.97s-1.11,5.77-3.34,7.94c-2.24,2.18-4.94,3.27-8.11,3.27-2.8,0-5.32-.97-7.54-2.91-2.45-2.14-3.68-4.95-3.68-8.43ZM345.76,200.16c0,2.4.81,4.37,2.42,5.91,1.6,1.55,3.45,2.32,5.55,2.32,2.28,0,4.2-.79,5.76-2.36,1.56-1.59,2.35-3.53,2.35-5.82s-.77-4.25-2.32-5.82c-1.54-1.57-3.44-2.36-5.7-2.36s-4.16.79-5.72,2.36c-1.55,1.55-2.33,3.48-2.33,5.76Z"/>
    <path class="cls-2" d="M378.28,189.37v18.62h6.38v3.08h-9.65v-21.69h3.27Z"/>
    <path class="cls-2" d="M396.13,189.37v13.07c0,1.86.3,3.23.91,4.09.91,1.25,2.19,1.87,3.84,1.87s2.94-.62,3.85-1.87c.61-.83.91-2.2.91-4.09v-13.07h3.27v13.97c0,2.29-.71,4.17-2.14,5.65-1.6,1.65-3.57,2.47-5.9,2.47s-4.29-.82-5.89-2.47c-1.42-1.48-2.14-3.36-2.14-5.65v-13.97h3.27Z"/>
    <path class="cls-2" d="M425.85,192.45v18.62h-3.27v-18.62h-4.99v-3.08h13.23v3.08h-4.97Z"/>
    <path class="cls-2" d="M442.78,189.37v21.69h-3.27v-21.69h3.27Z"/>
    <path class="cls-2" d="M452.66,200.12c0-3.05,1.12-5.68,3.36-7.87,2.23-2.19,4.91-3.29,8.04-3.29s5.74,1.11,7.95,3.32c2.22,2.21,3.33,4.87,3.33,7.97s-1.11,5.77-3.34,7.94c-2.24,2.18-4.94,3.27-8.11,3.27-2.8,0-5.32-.97-7.54-2.91-2.45-2.14-3.68-4.95-3.68-8.43ZM455.96,200.16c0,2.4.81,4.37,2.42,5.91,1.6,1.55,3.45,2.32,5.55,2.32,2.28,0,4.2-.79,5.76-2.36,1.56-1.59,2.35-3.53,2.35-5.82s-.77-4.25-2.32-5.82c-1.54-1.57-3.44-2.36-5.7-2.36s-4.16.79-5.72,2.36c-1.55,1.55-2.33,3.48-2.33,5.76Z"/>
    <path class="cls-2" d="M485.21,211.06v-23.17l15.82,16.55v-15.08h3.27v23.01l-15.82-16.51v15.19h-3.27Z"/>
    <path class="cls-2" d="M527.52,192.6l-2.66,1.57c-.5-.86-.97-1.42-1.42-1.69-.47-.3-1.07-.45-1.81-.45-.91,0-1.66.26-2.26.77-.6.51-.9,1.14-.9,1.91,0,1.06.79,1.91,2.36,2.56l2.16.89c1.76.71,3.05,1.58,3.86,2.61.81,1.03,1.22,2.28,1.22,3.77,0,2-.67,3.64-2,4.95-1.34,1.31-3,1.97-4.99,1.97-1.88,0-3.44-.56-4.66-1.67-1.21-1.11-1.96-2.68-2.26-4.71l3.32-.73c.15,1.27.41,2.15.79,2.64.67.94,1.66,1.4,2.95,1.4,1.02,0,1.87-.34,2.54-1.03.67-.68,1.01-1.55,1.01-2.6,0-.42-.06-.81-.18-1.16-.12-.35-.3-.67-.55-.97-.25-.29-.57-.57-.96-.83s-.86-.5-1.4-.74l-2.09-.87c-2.97-1.25-4.45-3.09-4.45-5.51,0-1.63.62-2.99,1.87-4.09,1.25-1.11,2.8-1.66,4.65-1.66,2.5,0,4.45,1.22,5.86,3.65Z"/>
  </g>
  <g>
    <path class="cls-1" d="M161.82,126.93c-.24-.7-.49-1.4-.74-2.08-9.37-24.85-24.75-35.28-41.92-40.43-24.81-7.45-49.29-16.48-72.69-31.67-2.55-1.66-5.13-3.25-8.88-5.63.89,4.74,1.26,7.71,1.99,10.45,4.07,15.37,11.17,26.45,20.28,34.8,11.34,10.39,24.02,13.07,36.67,15.74,16.37,3.46,32.57,8.22,47.68,18.81,2.51,1.76,4.96,3.77,7.42,5.93,2.47-2.27,5.37-4.07,8.73-5.39.48-.19.97-.36,1.46-.53Z"/>
    <path class="cls-2" d="M92.09,111.28c-15.01-2.75-29.78-7.34-44.94-9.56-1.2-.18-2.43-.23-4.62-.42,1.5,3.37,2.34,5.56,3.37,7.5,9.62,18.23,22.51,26.36,37.18,27.17,21.01,1.16,42.17-1.86,63,4.26.91-1.8,1.98-3.44,3.22-4.94-17.93-14.36-37.33-20.37-57.21-24.01Z"/>
    <path class="cls-4" d="M117.47,139.89c-19.78-.66-39.6,1.35-59.4,2.29-.37.02-.24.01-1.5.11,13.71,17.93,29.16,24.85,46.37,19.63,12.17-3.69,24.35-7.63,36.64-9.88,1.11-.2,2.23-.31,3.36-.35.21-2.59.7-5.04,1.45-7.36-8.96-2.14-17.93-4.13-26.92-4.44Z"/>
    <path class="cls-2" d="M142.82,154.7c-21.84,2.56-43.83,13.9-65.29,21.9.73.95,2.28,1.41,2.68,1.57,14.14,5.6,28.15,6.98,41.94-2.57,5.05-3.49,10.19-6.9,15.49-9.21,2.09-.91,4.2-1.75,6.32-2.55-.76-2.8-1.15-5.81-1.15-9.02,0-.04,0-.07,0-.11Z"/>
    <path class="cls-3" d="M160.95,155.73s-.05-.06-.08-.09c0,.04-.01.08-.02.13.03-.01.07-.02.1-.04Z"/>
    <path class="cls-5" d="M144.73,166.27c-14.15,6.75-26.61,21.05-40.69,31.42,11.54,3.69,25.19-.38,32.59-8.02,4.59-4.74,9.26-9.31,13.95-13.84-2.38-2.51-4.25-5.49-5.61-8.93-.08-.21-.16-.42-.24-.63Z"/>
  </g>
  <rect class="cls-7" x="154.51" y="225.27" width="372.24" height="30.91"/>
  <g>
    <path class="cls-6" d="M169.89,240.78l-4.97-7.08h4.23l2.53,3.72,2.51-3.72h4.23l-4.99,7.08v6.54h-3.54v-6.54Z"/>
    <path class="cls-6" d="M178.07,240.51c0-1.01.19-1.96.56-2.83.37-.87.89-1.63,1.55-2.29s1.45-1.16,2.38-1.53c.92-.36,1.94-.55,3.04-.55s2.11.18,3.04.55c.93.37,1.72.88,2.39,1.53s1.19,1.41,1.56,2.29c.37.87.56,1.81.56,2.83s-.19,1.96-.56,2.83c-.37.87-.89,1.63-1.56,2.29-.67.65-1.47,1.16-2.39,1.52s-1.94.55-3.04.55-2.12-.18-3.04-.55c-.92-.37-1.71-.88-2.38-1.52-.66-.65-1.18-1.41-1.55-2.29-.37-.87-.56-1.82-.56-2.83ZM181.77,240.51c0,.54.1,1.04.31,1.5s.48.85.83,1.19.76.6,1.22.79c.46.19.96.28,1.47.28s1.01-.09,1.47-.28c.46-.19.87-.45,1.23-.79.36-.34.64-.73.84-1.19.21-.46.31-.96.31-1.5s-.1-1.04-.31-1.5c-.2-.46-.48-.85-.84-1.19-.36-.34-.76-.6-1.23-.79-.46-.18-.95-.28-1.47-.28s-1.01.09-1.47.28c-.46.19-.87.45-1.22.79-.35.34-.63.74-.83,1.19s-.31.96-.31,1.5Z"/>
    <path class="cls-6" d="M198.94,233.7v7.41c0,.4.01.8.05,1.22.03.41.12.79.27,1.13.15.34.39.61.71.82.33.21.78.31,1.37.31s1.04-.1,1.36-.31.56-.49.71-.82c.16-.34.25-.71.28-1.13.03-.41.05-.82.05-1.22v-7.41h3.52v7.9c0,2.12-.48,3.67-1.45,4.65-.97.97-2.46,1.46-4.47,1.46s-3.5-.49-4.48-1.46c-.98-.98-1.46-2.53-1.46-4.65v-7.9h3.54Z"/>
    <path class="cls-6" d="M221.45,247.32h-4.41l-3.38-5.24v5.24h-3.54v-13.62h5.51c.76,0,1.42.11,1.99.34.57.22,1.03.53,1.4.91.37.39.64.83.83,1.34s.28,1.05.28,1.62c0,1.04-.25,1.88-.75,2.52-.5.64-1.24,1.08-2.21,1.31l4.28,5.58ZM213.66,239.79h.67c.7,0,1.23-.14,1.61-.43.37-.29.56-.7.56-1.25s-.19-.96-.56-1.25c-.37-.29-.91-.43-1.61-.43h-.67v3.36Z"/>
    <path class="cls-6" d="M232.61,247.32h-3.54v-13.62h5.64c1.53,0,2.7.4,3.51,1.19.81.8,1.22,1.91,1.22,3.36s-.41,2.56-1.22,3.36c-.81.8-1.98,1.19-3.51,1.19h-2.1v4.52ZM232.61,239.95h1.17c1.3,0,1.95-.56,1.95-1.7s-.65-1.7-1.95-1.7h-1.17v3.4Z"/>
    <path class="cls-6" d="M248.91,244.95h-5.06l-.81,2.37h-3.78l5.19-13.62h3.87l5.19,13.62h-3.78l-.81-2.37ZM247.97,242.26l-1.59-4.54-1.59,4.54h3.18Z"/>
    <path class="cls-6" d="M266.38,247.32h-4.41l-3.38-5.24v5.24h-3.54v-13.62h5.51c.76,0,1.42.11,1.99.34.57.22,1.03.53,1.4.91.37.39.64.83.83,1.34.19.51.28,1.05.28,1.62,0,1.04-.25,1.88-.75,2.52-.5.64-1.24,1.08-2.21,1.31l4.28,5.58ZM258.6,239.79h.67c.7,0,1.23-.14,1.61-.43.37-.29.56-.7.56-1.25s-.19-.96-.56-1.25c-.37-.29-.91-.43-1.61-.43h-.67v3.36Z"/>
    <path class="cls-6" d="M273.05,236.7v10.62h-3.54v-10.62h-2.91v-3h9.36v3h-2.91Z"/>
    <path class="cls-6" d="M277.53,247.32v-13.62h3.54l6.54,8.33v-8.33h3.52v13.62h-3.52l-6.54-8.33v8.33h-3.54Z"/>
    <path class="cls-6" d="M301.74,236.7h-4.21v2.28h3.97v3h-3.97v2.35h4.21v3h-7.75v-13.62h7.75v3Z"/>
    <path class="cls-6" d="M315.61,247.32h-4.41l-3.38-5.24v5.24h-3.54v-13.62h5.51c.76,0,1.42.11,1.99.34.57.22,1.03.53,1.4.91.37.39.64.83.83,1.34.19.51.28,1.05.28,1.62,0,1.04-.25,1.88-.75,2.52-.5.64-1.24,1.08-2.21,1.31l4.28,5.58ZM307.83,239.79h.67c.7,0,1.23-.14,1.61-.43.37-.29.56-.7.56-1.25s-.19-.96-.56-1.25c-.37-.29-.91-.43-1.61-.43h-.67v3.36Z"/>
    <path class="cls-6" d="M328.7,233.7v13.62h-3.54v-13.62h3.54Z"/>
    <path class="cls-6" d="M331.55,247.32v-13.62h3.54l6.54,8.33v-8.33h3.52v13.62h-3.52l-6.54-8.33v8.33h-3.54Z"/>
    <path class="cls-6" d="M361.63,237.19c-.39-.31-.77-.55-1.16-.7-.39-.15-.76-.23-1.12-.23-.46,0-.83.11-1.12.32-.29.22-.43.5-.43.85,0,.24.07.44.22.6.14.16.34.29.57.41.24.12.5.22.8.3.3.08.59.17.88.27,1.16.39,2,.9,2.54,1.54.53.65.8,1.48.8,2.52,0,.7-.12,1.33-.35,1.9-.23.57-.58,1.05-1.03,1.45-.45.41-1.01.72-1.66.94-.66.22-1.4.33-2.23.33-1.72,0-3.32-.51-4.79-1.54l1.52-2.85c.53.47,1.05.82,1.57,1.05s1.03.34,1.54.34c.58,0,1.01-.13,1.29-.4.28-.27.42-.57.42-.9,0-.21-.04-.38-.11-.53-.07-.15-.19-.29-.36-.41-.17-.13-.39-.25-.66-.35-.27-.11-.6-.23-.99-.36-.46-.15-.91-.31-1.35-.48s-.83-.41-1.17-.7c-.34-.29-.62-.65-.83-1.09-.21-.44-.32-1-.32-1.67s.11-1.29.33-1.83c.22-.55.54-1.02.94-1.41.4-.39.9-.7,1.48-.91.58-.22,1.24-.32,1.96-.32.68,0,1.38.09,2.11.28.73.18,1.44.46,2.11.82l-1.41,2.77Z"/>
    <path class="cls-6" d="M373.92,244.95h-5.06l-.81,2.37h-3.78l5.19-13.62h3.87l5.19,13.62h-3.78l-.81-2.37ZM372.98,242.26l-1.59-4.54-1.59,4.54h3.18Z"/>
    <path class="cls-6" d="M381.44,233.7l3.29,8.29,3.31-8.29h3.85l-5.75,13.62h-2.82l-5.73-13.62h3.85Z"/>
    <path class="cls-6" d="M396.85,233.7v13.62h-3.54v-13.62h3.54Z"/>
    <path class="cls-6" d="M399.7,247.32v-13.62h3.54l6.54,8.33v-8.33h3.52v13.62h-3.52l-6.54-8.33v8.33h-3.54Z"/>
    <path class="cls-6" d="M423.04,239.7h7.03c0,.72-.03,1.38-.09,1.97-.06.59-.18,1.14-.36,1.64-.25.71-.6,1.34-1.03,1.89-.43.55-.94,1.01-1.53,1.38s-1.23.65-1.92.84-1.43.29-2.2.29c-1.06,0-2.03-.17-2.9-.52-.87-.35-1.62-.84-2.25-1.47-.63-.63-1.11-1.39-1.46-2.28-.35-.89-.53-1.86-.53-2.94s.17-2.03.52-2.92.83-1.64,1.46-2.27c.63-.63,1.4-1.11,2.29-1.46.89-.35,1.88-.52,2.98-.52,1.42,0,2.67.31,3.74.92,1.07.61,1.92,1.57,2.55,2.86l-3.36,1.39c-.31-.75-.72-1.28-1.22-1.61-.5-.32-1.07-.49-1.71-.49-.53,0-1.01.1-1.45.3-.43.2-.8.48-1.11.85s-.55.81-.72,1.33c-.17.52-.26,1.09-.26,1.73,0,.58.07,1.11.23,1.61.15.5.38.92.68,1.28.3.36.67.64,1.12.84.45.2.96.3,1.55.3.35,0,.69-.04,1.01-.12.32-.08.62-.2.88-.38.26-.17.47-.4.64-.68s.28-.61.34-1.01h-2.91v-2.75Z"/>
    <path class="cls-6" d="M446.21,236.7h-4.21v2.28h3.97v3h-3.97v2.35h4.21v3h-7.75v-13.62h7.75v3Z"/>
    <path class="cls-6" d="M448.75,247.32v-13.62h3.54l6.54,8.33v-8.33h3.52v13.62h-3.52l-6.54-8.33v8.33h-3.54Z"/>
    <path class="cls-6" d="M472.96,236.7h-4.21v2.28h3.97v3h-3.97v2.35h4.21v3h-7.75v-13.62h7.75v3Z"/>
    <path class="cls-6" d="M486.84,247.32h-4.41l-3.38-5.24v5.24h-3.54v-13.62h5.51c.76,0,1.42.11,1.99.34.57.22,1.03.53,1.4.91.37.39.64.83.83,1.34s.28,1.05.28,1.62c0,1.04-.25,1.88-.75,2.52-.5.64-1.24,1.08-2.21,1.31l4.28,5.58ZM479.05,239.79h.67c.7,0,1.23-.14,1.61-.43.37-.29.56-.7.56-1.25s-.19-.96-.56-1.25c-.37-.29-.91-.43-1.61-.43h-.67v3.36Z"/>
    <path class="cls-6" d="M494.77,239.7h7.03c0,.72-.03,1.38-.09,1.97-.06.59-.18,1.14-.36,1.64-.25.71-.6,1.34-1.03,1.89-.43.55-.94,1.01-1.53,1.38s-1.23.65-1.92.84-1.43.29-2.2.29c-1.06,0-2.03-.17-2.9-.52s-1.62-.84-2.25-1.47c-.63-.63-1.11-1.39-1.46-2.28-.35-.89-.53-1.86-.53-2.94s.17-2.03.52-2.92c.34-.89.83-1.64,1.46-2.27.63-.63,1.4-1.11,2.29-1.46.89-.35,1.88-.52,2.98-.52,1.42,0,2.67.31,3.74.92,1.07.61,1.92,1.57,2.55,2.86l-3.36,1.39c-.31-.75-.72-1.28-1.22-1.61-.5-.32-1.07-.49-1.71-.49-.53,0-1.01.1-1.45.3-.43.2-.8.48-1.11.85s-.55.81-.72,1.33c-.17.52-.26,1.09-.26,1.73,0,.58.07,1.11.23,1.61.15.5.38.92.68,1.28.3.36.67.64,1.12.84.45.2.96.3,1.55.3.35,0,.69-.04,1.01-.12.32-.08.62-.2.88-.38.26-.17.47-.4.64-.68s.28-.61.34-1.01h-2.91v-2.75Z"/>
    <path class="cls-6" d="M506.43,240.78l-4.97-7.08h4.23l2.53,3.72,2.51-3.72h4.23l-4.99,7.08v6.54h-3.54v-6.54Z"/>
  </g>
</svg>