<?xml version="1.0" encoding="UTF-8"?>
<svg id="Layer_1" data-name="Layer 1" xmlns="http://www.w3.org/2000/svg" version="1.1" viewBox="0 0 512 512">
  <defs>
    <style>
      .cls-1 {
        fill: #fff;
        stroke-width: 0px;
      }
    </style>
  </defs>
  <path class="cls-1" d="M329.9,237.6c3.6,1.3,5.5,5.4,4.1,9-1.3,3.6-5.3,5.5-9,4.2l-23.6-8.7-12.2,7c1.8,5.9,1.8,12.3,0,18.2l12.2,7,23.6-8.7c3.6-1.3,7.6.5,9,4.2s-.5,7.6-4.1,9l-12.7,4.7,18.1,10.5c3.3,1.9,4.5,6.2,2.5,9.5-1.9,3.3-6.2,4.5-9.5,2.5l-18.2-10.5,2.3,13.3c.6,3.8-1.9,7.4-5.7,8-3.8.6-7.4-1.9-8.1-5.7l-4.2-24.8-12.2-7c-4.1,4.5-9.6,7.6-15.7,9.1v14.1l19.3,16c3,2.5,3.4,6.9.9,9.8-2.5,3-6.9,3.3-9.8.9l-10.4-8.6v21c0,3.9-3.1,7-7,7s-7-3.1-7-7v-21l-10.4,8.6c-2.9,2.5-7.3,2.1-9.8-.9s-2-7.4.9-9.8l19.3-16v-14.1c-6.1-1.4-11.5-4.6-15.7-9.1l-12.2,7.1-4.2,24.8c-.6,3.8-4.3,6.4-8.1,5.7s-6.4-4.2-5.7-8l2.3-13.3-18.1,10.5c-3.3,2-7.6.8-9.5-2.5s-.8-7.6,2.6-9.5l18.1-10.5-12.6-4.7c-3.6-1.3-5.5-5.3-4.1-9s5.3-5.5,9-4.2l23.6,8.7,12.2-7c-1.8-5.9-1.8-12.2,0-18.1l-12.2-7.1-23.6,8.7c-3.6,1.3-7.6-.5-9-4.2-1.3-3.6.5-7.6,4.1-9l12.6-4.7-18.1-10.5c-3.3-2-4.5-6.2-2.6-9.6s6.2-4.5,9.5-2.6l18.1,10.5-2.3-13.3c-.6-3.8,1.9-7.4,5.7-8.1,3.8-.6,7.4,1.9,8.1,5.7l4.2,24.8,12.2,7c4.2-4.4,9.6-7.6,15.7-9.1v-14.1l-19.3-16c-2.9-2.5-3.4-6.9-.9-9.8,2.5-3,6.9-3.4,9.8-.9l10.4,8.6v-20.9c0-3.9,3.1-7,7-7s7,3.1,7,7v20.9l10.4-8.6c3-2.5,7.3-2.1,9.8.9,2.5,2.9,2.1,7.3-.9,9.8l-19.3,16v14.1c6.1,1.4,11.6,4.6,15.7,9.1l12.2-7.1,4.2-24.8c.6-3.8,4.3-6.4,8.1-5.7,3.8.6,6.4,4.2,5.7,8.1l-2.3,13.3,18.2-10.5c3.3-1.9,7.6-.8,9.5,2.6,1.9,3.3.8,7.6-2.5,9.5l-18.1,10.5,12.7,4.7h0ZM271.7,246c-10.7-10.7-29.1-3.1-29.1,12.1s18.4,22.7,29.1,12c6.7-6.6,6.7-17.4,0-24.1h0ZM409,188.7c-40.1-68.5-212.5-115.7-248.5-20.4h35.3c5.8,0,9.5,7,5,11.9l-80.3,93.9c-2.8,3.3-7.9,3.2-10.7,0L29.3,179.9c-3.9-4.5-.6-11.5,5.3-11.5h38.1c21.2-149.3,285.9-210.2,349.3,15.4,1,3.7-1.1,7.6-4.9,8.6-3.3.9-6.7-.7-8.1-3.6h0ZM309.4,108.4c32.8,8.8,64.1,24.6,86.7,44.1-20.2-45.3-50.5-74.2-84.5-89.6-51.6-23.5-113.2-16.5-159.9,12.9-35.7,22.5-61.6,57.5-65.7,99.6,0,3.8-3.2,6.9-7,6.9h-29.1l65.4,76.5,65.5-76.5h-29.7c-4.6,0-7.9-4.4-6.8-8.8,13.1-49,53.9-70.5,100.9-72.7,20.9-1,42.9,1.8,64.3,7.6h-.1ZM110.2,327.4c40.1,68.5,212.5,115.7,248.5,20.4h-35.3c-5.8,0-9.5-7-5-11.9l80.3-93.9c2.8-3.3,7.9-3.2,10.7,0l80.6,94.2c3.9,4.6.6,11.5-5.3,11.5h-38.1c-21.2,149.3-285.9,210.2-349.3-15.4-1.1-3.7,1.1-7.6,4.8-8.6,3.3-1,6.6.6,8.1,3.6h0ZM209.9,407.8c-32.8-8.8-64.1-24.6-86.7-44.1,20.2,45.4,50.5,74.2,84.5,89.6,51.6,23.4,113.2,16.5,159.9-12.9,35.7-22.5,61.6-57.5,65.7-99.6,0-3.8,3.2-6.9,7-6.9h29.1l-65.5-76.6-65.5,76.6h29.7c4.6,0,7.9,4.3,6.8,8.8-13.1,49-53.9,70.5-100.9,72.7-20.9,1-42.9-1.9-64.3-7.6h.2Z"/>
</svg>