<?xml version="1.0" encoding="UTF-8"?>
<svg id="Layer_1" data-name="Layer 1" xmlns="http://www.w3.org/2000/svg" version="1.1" viewBox="0 0 400 400">
  <defs>
    <style>
      .cls-1 {
        fill: #529343;
        stroke-width: 0px;
      }
    </style>
  </defs>
  <path class="cls-1" d="M270.85,38.42l-192.71.27c-1.16,0-2.11.94-2.11,2.11l-.09,248.57c0,1.16.94,2.11,2.11,2.11l140.43.22c1.16,0,2.11.94,2.11,2.11l.04,5.96c0,1.16-.94,2.11-2.11,2.11l-150.33-.18c-1.16,0-2.11-.94-2.11-2.11l-.22-268.77c0-1.16.94-2.11,2.11-2.11l212.06-.13c1.16,0,2.11.94,2.11,2.11l.81,146.16c0,1.25-1.08,2.24-2.33,2.11l-5.91-.63c-1.08-.09-1.88-.99-1.88-2.11l.13-135.68c0-1.16-.94-2.11-2.11-2.11h0Z"/>
  <path class="cls-1" d="M178.93,62.02c0,2.51-2.02,4.52-4.52,4.52h-75.25c-2.51,0-4.52-2.02-4.52-4.52v-.45c0-2.51,2.02-4.52,4.52-4.52h75.25c2.51,0,4.52,2.02,4.52,4.52v.45h0Z"/>
  <path class="cls-1" d="M298.44,66.55l-4.39-1.88c-2.91-1.25-2.69-5.46.36-6.41,5.15-1.57,9.54-1.61,13.21-.22,2.15.85,3.23,2.19,3.18,4.03-.04,40.63.09,78.3.36,113.06.04,1.43-.72,2.78-1.97,3.54-1.21.76-2.46.94-3.67.63-3-.76-4.48-2.69-4.48-5.78l.04-102.89c0-1.93-.9-3.31-2.64-4.08h0Z"/>
  <path class="cls-1" d="M178.75,90.74c0,2.33-1.93,4.26-4.26,4.26h-75.43c-2.33,0-4.26-1.93-4.26-4.26v-1.43c0-2.33,1.93-4.26,4.26-4.26h75.43c2.33,0,4.26,1.93,4.26,4.26v1.43h0Z"/>
  <path class="cls-1" d="M178.66,118.78c0,2.55-2.11,4.66-4.66,4.66h-74.45c-2.55,0-4.66-2.11-4.66-4.66v-.9c0-2.55,2.11-4.66,4.66-4.66h74.45c2.55,0,4.66,2.11,4.66,4.66v.9h0Z"/>
  <path class="cls-1" d="M254.1,146.64c0,2.64-2.15,4.79-4.79,4.79H99.33c-2.64,0-4.79-2.15-4.79-4.79v-.27c0-2.64,2.15-4.79,4.79-4.79h149.97c2.64,0,4.79,2.15,4.79,4.79v.27h0Z"/>
  <path class="cls-1" d="M254.14,174.59c0,2.69-2.15,4.84-4.84,4.84H99.6c-2.69,0-4.84-2.15-4.84-4.84v-.18c0-2.69,2.15-4.84,4.84-4.84h149.7c2.69,0,4.84,2.15,4.84,4.84v.18h0Z"/>
  <path class="cls-1" d="M367.11,259.3c0,38.93-31.58,70.51-70.51,70.51s-70.51-31.58-70.51-70.51,31.58-70.51,70.51-70.51,70.51,31.58,70.51,70.51M357.62,259.3c0-33.73-27.32-61.05-61.06-61.05s-61.05,27.32-61.05,61.05,27.32,61.06,61.05,61.06,61.06-27.32,61.06-61.06h0Z"/>
  <path class="cls-1" d="M296.56,272.38l19.08-38.03c.54-1.07,1.39-1.93,2.51-2.42,2.87-1.34,5.02-.85,6.41,1.43.67,1.12.72,2.51.18,3.67l-24.14,48.42c-1.16,2.37-4.21,3.05-6.27,1.39l-24.64-19.75c-2.06-1.66-2.02-4.84.09-6.45l1.66-1.25c.94-.72,2.28-.72,3.23,0l17.6,13.93c1.84,1.43,3.27,1.12,4.3-.94h0Z"/>
  <path class="cls-1" d="M100.11,317.25c.81,2.46,2.51,3.72,5.15,3.72l126.01.09c2.24,0,4.12,1.75,4.3,3.99l.13,1.52c.13,2.11-1.52,3.9-3.63,3.94l-136.76.13c-2.55,0-4.17-1.25-4.75-3.76-1.12-4.52-.72-9.05,1.17-13.57.72-1.79,2.96-2.42,4.52-1.3,1.88,1.3,3.18,3.05,3.85,5.24Z"/>
  <path class="cls-1" d="M227.86,50.19c-21.03,0-38.14,17.11-38.14,38.14s17.11,38.14,38.14,38.14,38.14-17.11,38.14-38.14-17.11-38.14-38.14-38.14ZM258.64,84.76h-26.86l-.31-27.2c14.23,1.66,25.53,12.97,27.17,27.2ZM227.86,119.34c-17.1,0-31-13.91-31-31,0-15.9,12.04-29.03,27.47-30.79l.39,34.36h33.92c-1.78,15.42-14.89,27.44-30.78,27.44Z"/>
  <path class="cls-1" d="M218.4,266.42h-4.27v-33.54c0-2.63-2.13-4.76-4.76-4.76s-4.76,2.13-4.76,4.76v33.54h-11.19v-46.45c0-2.63-2.13-4.76-4.76-4.76s-4.76,2.13-4.76,4.76v46.45h-11.19v-28.67c0-2.63-2.13-4.76-4.76-4.76s-4.76,2.13-4.76,4.76v28.67h-11.19v-29.2c0-2.63-2.13-4.76-4.76-4.76s-4.76,2.13-4.76,4.76v29.2h-11.19v-35.18c0-2.63-2.13-4.76-4.76-4.76s-4.76,2.13-4.76,4.76v35.18h-11.19v-47.25c0-2.63-2.13-4.76-4.76-4.76s-4.76,2.13-4.76,4.76v47.25h-8.69l-.47-69.81c-.02-2.62-2.14-4.73-4.76-4.73h-.03c-2.63.02-4.74,2.16-4.73,4.79l.54,79.26h135.48c2.63,0,4.76-2.13,4.76-4.76s-2.13-4.76-4.76-4.76Z"/>
</svg>