<?xml version="1.0" encoding="UTF-8"?>
<svg id="Layer_1" data-name="Layer 1" xmlns="http://www.w3.org/2000/svg" version="1.1" viewBox="0 0 400 400">
  <defs>
    <style>
      .cls-1 {
        fill: #529343;
        stroke-width: 0px;
      }
    </style>
  </defs>
  <g>
    <path class="cls-1" d="M320.92,122.45c0,43.08-34.94,78.03-78.03,78.03s-78.03-34.94-78.03-78.03,34.94-78.03,78.03-78.03,78.03,34.94,78.03,78.03M312.41,122.62c0-38.46-31.18-69.64-69.64-69.64s-69.64,31.18-69.64,69.64,31.18,69.64,69.64,69.64,69.64-31.18,69.64-69.64h0Z"/>
    <path class="cls-1" d="M250.25,248.85c-.76-12.96-6.97-15.58-18.85-17.19-10.03-1.34-20.2-.83-28.78-7.78-9.46-7.65-19.59-16.31-30.59-20.39-15.43-5.75-31.37-4.03-47.85,5.11-5.65,3.15-11.88,7.73-18.75,13.72-9.51,8.36-22.96,11.86-34.36,15.99-1.47.54-3.06-.44-3.25-1.98l-.17-1.61c-.15-1.27.59-2.47,1.78-2.93,12.89-4.96,24.94-9.59,35.19-19.27,7.12-6.72,15.62-11.98,25.53-15.75,30-11.39,54.19.46,76.63,20.22,7.73,6.82,19.59,6.63,29.1,7.56,14.7,1.44,23.89,12.91,22.13,27.41-1.08,9-12.06,10.22-20.39,11-10.22.95-20.44,1.69-30.64,2.15-8.39.42-15.33-.59-20.78-3.01-9.19-4.03-17.95-7.58-26.24-10.61-2.42-.88-3.2-2.54-2.35-4.96l.27-.73c.54-1.52,2.18-2.32,3.69-1.81,10.15,3.35,19.78,7.02,28.9,11,2.64,1.15,5.36,1.76,8.14,1.88,13.57.51,29.54-.64,47.93-3.4,2.25-.34,3.86-2.35,3.72-4.62h0Z"/>
    <path class="cls-1" d="M335.86,212.85c6.26,4.4,12.32,17.51,3.79,23.38-36.58,25.19-69.71,45.73-99.4,61.59-5.65,3.01-11.69,5.87-18.14,8.63-14.84,6.28-30.64,3.81-47.44.49-18.51-3.64-35.77-7.38-51.84-11.2-3.94-.93-6.97-.98-10.71,1.05-7.21,3.94-15.36,8.58-24.45,13.89-2.13,1.25-3.99.93-5.53-.98-.66-.78-.64-2.01.05-3.69.27-.66.73-1.2,1.34-1.56,7.8-4.79,16.09-9.83,24.92-15.11,3.79-2.27,8.71-2.74,14.74-1.34,22.72,5.21,45.14,9.85,67.32,13.89,12.01,2.18,23.2.68,33.6-4.52,37.8-19,72.38-41.91,108.18-65.9,4.3-2.89,3.45-7.85-.22-10.83-9.44-7.73-18.17-8.09-28.73-3.06-12.62,6.04-25.01,10.98-37.17,14.82-1,.32-2.1-.02-2.74-.88-.46-.66-.71-1.32-.76-1.98-.17-2.42.88-4.08,3.15-4.99,12.72-5.06,24.6-9.95,35.65-14.7,12.5-5.36,23.96-4.35,34.38,3.01h0Z"/>
  </g>
  <path class="cls-1" d="M235.58,152.09l-27.1-24.52c-1.5-1.36-1.62-3.68-.26-5.18,1.36-1.5,3.68-1.62,5.18-.26l21.64,19.58,36.19-40.32c1.35-1.51,3.67-1.63,5.18-.28,1.51,1.35,1.63,3.67.28,5.18l-41.11,45.8Z"/>
</svg>