<?xml version="1.0" encoding="UTF-8"?>
<svg id="Layer_1" data-name="Layer 1" xmlns="http://www.w3.org/2000/svg" version="1.1" viewBox="0 0 400 400">
  <defs>
    <style>
      .cls-1 {
        fill: #529343;
        stroke-width: 0px;
      }
    </style>
  </defs>
  <path class="cls-1" d="M334.66,94.25c.66-.07.73-.32.27-.78l-41.81-41.98c-.93-.95-2.47-.95-3.42-.02l-42.08,41.57c-1.05,1.05-.86,1.56.64,1.54l11.15-.2c3.01-.05,4.5,1.42,4.5,4.43l-.46,177.57c0,1.34-.68,2.01-2.03,1.98l-4.57-.02c-1.44,0-2.15-.71-2.13-2.15.29-12.84.39-25.92.27-39.29-.39-44.23-.56-88.44-.51-132.63,0-.88-.68-1.57-1.57-1.59-6.09-.05-12.3-.15-18.63-.27-1.08-.02-1.69-.1-1.81-.24-1.42-1.47-1.39-3.86.07-5.4,17.95-18.85,36.34-37.51,55.19-55.97,2.18-2.1,5.62-2.1,7.75.05,18.41,18.56,36.73,37.04,54.9,55.48,1.59,1.61,1.78,4.16.44,5.97-.15.2-.78.32-1.93.34-6.33.2-12.47.34-18.41.46-1.22.02-2.2,1.03-2.2,2.25l.12,170.8c0,1.42-1.1,2.62-2.52,2.69l-3.69.2c-1.56.07-2.35-.66-2.37-2.25-.56-58.71-.71-117.64-.44-176.81.02-2.79.83-4.69,2.45-5.7.98-.61,2.74-.68,5.31-.27,2.67.44,5.18.54,7.56.27h0Z"/>
  <path class="cls-1" d="M227.02,146.75c0-1.22-.98-2.2-2.2-2.18l-50.62.24c-1.12,0-2.08.9-2.13,2.03-.39,8.31-.61,16.53-.66,24.65-.17,35.38-.22,70.37-.1,104.97,0,1.1-.86,2.03-1.96,2.1l-5.21.42c-1.05.07-1.59-.42-1.59-1.49.29-39.39.27-79.03-.1-118.86-.07-5.5.05-11.32.32-17.48.15-2.98,2.59-5.33,5.55-5.31l62.21.27c2.27.02,4.23,1.59,4.69,3.81.42,1.88.64,4.45.61,7.7-.2,40.76-.17,83.16.07,127.25.02,1.74-1.25,3.23-2.98,3.52l-3.4.54c-1.71.27-2.57-.44-2.57-2.18l.05-130.01h0Z"/>
  <path class="cls-1" d="M79.52,187.95l-.39,88.96c0,.93-.73,1.66-1.66,1.66l-5.89.02c-.98.02-1.47-.46-1.47-1.44l.42-91.16c.02-5.89,2.98-8.85,8.9-8.83l56,.12c5.62,0,8.44,2.81,8.41,8.44l-.44,89.67c0,1.54-1.12,2.84-2.66,3.06l-2.86.44c-1.64.24-2.45-.46-2.47-2.1l-.78-89.89c-.02-.44-.37-.78-.78-.78l-52.35-.12c-1.3,0-1.96.66-1.96,1.96h0Z"/>
  <path class="cls-1" d="M341.72,292.35c0,2.35-1.91,4.28-4.27,4.29l-276.75.48c-2.36,0-4.29-1.9-4.29-4.27v-.2c0-2.35,1.91-4.28,4.27-4.29l276.75-.48c2.36,0,4.29,1.9,4.29,4.27v.2h0Z"/>
</svg>