<?xml version="1.0" encoding="UTF-8"?>
<svg id="Layer_1" data-name="Layer 1" xmlns="http://www.w3.org/2000/svg" version="1.1" viewBox="0 0 400 400">
  <defs>
    <style>
      .cls-1 {
        fill: #529542;
        stroke-width: 0px;
      }
    </style>
  </defs>
  <path class="cls-1" d="M107.69,235.93c1.66,1.56,5.96-.38,9.62-4.3,3.65-3.93,5.28-8.35,3.62-9.9-1.66-1.56-5.96.38-9.62,4.3-3.65,3.93-5.28,8.35-3.62,9.9"/>
  <path class="cls-1" d="M200.17,37.35c.03,2.01-1.58,3.67-3.6,3.69h-.93c-2.02.03-3.65-1.58-3.69-3.59l-.13-10.37c-.03-2.01,1.58-3.67,3.6-3.69h.93c2.02-.03,3.65,1.58,3.69,3.59l.13,10.37h0Z"/>
  <path class="cls-1" d="M271.76,203.7c-6.75,9.68-12.35,18.12-18.63,27.29-7.65,11.13-11.98,21.03-12.67,33.43-.49,8.66-5.33,11.61-13.25,11.69-24.04.17-45.21.22-63.58.12-4.91-.02-8.9-1.79-11.93-5.23-.54-.61-.83-1.34-.9-2.15-.51-6.94-.07-13.91-2.47-20.34-2.91-7.75-6.72-14.7-11.44-20.86-16.92-22.08-31.3-43.48-35.99-71.28-2.18-13.01-1.66-25.23,1.56-36.7,12.03-42.67,53.28-71.28,97.61-68.42,41.01,2.67,69.76,22.06,86.29,58.12,2.52,5.53,4.3,12.91,5.31,22.15,2.76,25.36-5.45,51.47-19.9,72.18M232.83,265.9c.46-14.4,3.57-26.02,12.1-38.29,7.04-10.12,14.06-20.27,21.03-30.44,15.8-23.06,23.4-55.78,13.5-81.77-8.66-22.74-24.65-39.15-47.95-49.2-16.58-7.14-35.38-8.07-53.31-5.04-7.87,1.34-15.5,3.81-22.86,7.46-31.69,15.65-50.22,45.38-46.9,80.23,1.74,18.36,7.38,34.28,16.9,47.78,6.41,9.1,12.96,18.44,19.64,28,9.41,13.5,14.33,24.89,13.57,39.88-.07,1.81,1.37,3.33,3.18,3.33l68.81.27c1.25.02,2.25-.95,2.3-2.2h0Z"/>
  <path class="cls-1" d="M107.34,60.68l.61-.83c1.22-1.66,3.59-1.93,5.16-.61,3.06,2.57,5.8,5.62,8.22,9.15.49.71.59,1.44.27,2.25-.51,1.32-1.39,2.2-2.67,2.67-.73.24-1.54.12-2.18-.34l-8.48-6.19c-2.35-1.71-2.67-3.74-.93-6.09h0Z"/>
  <path class="cls-1" d="M276.62,72.17c-1.41,1.52-3.81,1.62-5.32.19l-.29-.27c-1.53-1.41-1.6-3.8-.19-5.32l7.27-7.8c1.41-1.52,3.81-1.62,5.32-.19l.29.27c1.53,1.41,1.6,3.8.19,5.32l-7.27,7.8h0Z"/>
  <path class="cls-1" d="M212.04,146.7l25.26-.17c1.49,0,2.84.9,3.4,2.27,1.42,3.45.22,6.92-1.81,10.29-15.23,25.21-30.27,50.52-45.09,75.97-2.08,3.55-5.65,6.06-9.78,3.74-2.27-1.3-3.42-3.37-3.4-6.24.17-18.36.24-36.65.2-54.82-.02-1.22-1.03-2.2-2.25-2.15l-22.62.66c-3.35.1-5.97-2.84-5.5-6.14.27-1.74.86-3.35,1.76-4.89,13.77-22.84,27.19-45.9,40.3-69.17,2.18-3.89,4.5-7.56,6.94-10.95,1.37-1.91,3.18-2.57,5.45-2,3.84.95,5.77,3.01,5.84,6.11.37,19.39.37,38.12-.02,56.14-.02.9.42,1.34,1.32,1.34M202.29,152.47l-.39-51.2c-.02-4.16-1.03-4.4-3.01-.73-11.91,22.18-24.82,44.06-38.78,65.7-.49.76.05,1.74.95,1.74l26.29-.05c1.05,0,1.91.86,1.88,1.88-.17,14.5-.15,29.2.12,44.06.05,4.23-.56,8.39-.76,12.57-.07,1.52.29,1.61,1.05.29l40.79-69.76c.46-.76-.05-1.74-.93-1.83-8.29-.81-16.48-.9-24.57-.24-1.42.12-2.62-1-2.64-2.42h0Z"/>
  <path class="cls-1" d="M89.7,147.78c-.11,2.34-4.27,4.05-9.32,3.83-5.05-.22-9.06-2.29-8.95-4.63.11-2.34,4.27-4.05,9.32-3.83,5.05.22,9.06,2.29,8.95,4.63h0Z"/>
  <path class="cls-1" d="M315.65,151.37c-4.13.22-8.14-.29-12.08-1.49-2.03-.64-2.67-1.96-1.91-3.96.32-.86.93-1.34,1.81-1.52,4.72-.9,9.44-.93,14.13-.05.83.17,1.44.61,1.81,1.37,1.54,3.15-.73,5.48-3.77,5.65h0Z"/>
  <path class="cls-1" d="M107.69,235.93c-1.67-1.55-.03-5.97,3.62-9.9,3.66-3.92,7.97-5.85,9.62-4.3,1.67,1.55.03,5.97-3.62,9.9-3.66,3.92-7.97,5.85-9.62,4.3h0Z"/>
  <path class="cls-1" d="M283.28,235.8c-1.75,1.57-5.9-.27-9.26-4.05-3.37-3.8-4.64-8.13-2.89-9.69,1.75-1.57,5.9.27,9.26,4.05,3.37,3.8,4.64,8.13,2.89,9.69h0Z"/>
  <path class="cls-1" d="M212.9,309.62c7.82-.22,14.94-5.21,15.53-12.89.22-2.96.59-5.89,1.1-8.75.15-.81.56-1.44,1.27-1.91,1.64-1.03,3.23-1,4.82.07.68.46,1.08,1.12,1.17,1.96,1.71,16.02-10.25,29.42-26.43,29.39-11.57-.02-22.25-.2-32.11-.51-16.36-.54-24.06-12.81-23.57-27.75.07-1.76.95-2.86,2.64-3.3l1.88-.49c1.76-.44,2.74.24,2.96,2.03,1.25,10.44,1.03,20.2,14.26,21.37,10.71.95,22.86,1.2,36.48.78h0Z"/>
</svg>