<?xml version="1.0" encoding="UTF-8"?>
<svg id="Layer_1" data-name="Layer 1" xmlns="http://www.w3.org/2000/svg" version="1.1" xmlns:xlink="http://www.w3.org/1999/xlink" viewBox="0 0 236.73 270.75">
  <defs>
    <style>
      .cls-1 {
        fill: url(#linear-gradient);
      }

      .cls-1, .cls-2, .cls-3, .cls-4, .cls-5 {
        stroke-width: 0px;
      }

      .cls-2 {
        fill: #8ec73f;
      }

      .cls-3 {
        fill: url(#linear-gradient-2);
      }

      .cls-4 {
        fill: #b9d332;
      }

      .cls-5 {
        fill: url(#linear-gradient-3);
      }
    </style>
    <linearGradient id="linear-gradient" x1="26.16" y1="-8.62" x2="200.01" y2="165.22" gradientUnits="userSpaceOnUse">
      <stop offset="0" stop-color="#afc98a"/>
      <stop offset=".57" stop-color="#8fc640"/>
      <stop offset=".78" stop-color="#2d5d2d"/>
      <stop offset=".88" stop-color="#226a40"/>
      <stop offset=".95" stop-color="#243b1b"/>
    </linearGradient>
    <linearGradient id="linear-gradient-2" x1="80.68" y1="130.93" x2="164.36" y2="214.61" xlink:href="#linear-gradient"/>
    <linearGradient id="linear-gradient-3" x1="156.03" y1="230.49" x2="177.04" y2="251.5" xlink:href="#linear-gradient"/>
  </defs>
  <path class="cls-1" d="M223.61,140.84c-.41-1.19-.83-2.37-1.27-3.54-15.92-42.26-42.09-59.99-71.27-68.75-42.18-12.66-83.81-28.02-123.59-53.85-4.34-2.82-8.71-5.52-15.1-9.56,1.51,8.07,2.14,13.11,3.38,17.76,6.92,26.13,18.99,44.96,34.48,59.17,19.27,17.67,40.83,22.22,62.35,26.77,27.83,5.88,55.37,13.98,81.07,31.98,4.27,2.99,8.43,6.4,12.62,10.08,4.19-3.87,9.13-6.93,14.85-9.17.82-.32,1.64-.62,2.49-.9Z"/>
  <path class="cls-2" d="M105.05,114.23c-25.52-4.67-50.64-12.47-76.4-16.26-2.04-.3-4.13-.39-7.85-.71,2.55,5.73,3.98,9.45,5.72,12.76,16.35,31,38.27,44.82,63.22,46.19,35.73,1.97,71.7-3.16,107.11,7.25,1.54-3.06,3.37-5.85,5.48-8.4-30.48-24.41-63.47-34.64-97.28-40.83Z"/>
  <path class="cls-3" d="M148.21,162.88c-33.63-1.12-67.33,2.29-101,3.89-.63.03-.4.02-2.55.18,23.31,30.48,49.58,42.25,78.85,33.37,20.69-6.28,41.4-12.97,62.3-16.8,1.89-.35,3.8-.53,5.71-.59.36-4.41,1.19-8.58,2.47-12.51-15.24-3.63-30.49-7.03-45.78-7.54Z"/>
  <path class="cls-2" d="M191.3,188.06c-37.13,4.35-74.52,23.64-111.02,37.23,1.24,1.61,3.87,2.39,4.56,2.66,24.04,9.52,47.86,11.86,71.32-4.37,8.58-5.94,17.33-11.73,26.34-15.66,3.56-1.55,7.14-2.98,10.74-4.34-1.3-4.77-1.95-9.88-1.95-15.34,0-.06,0-.12,0-.19Z"/>
  <path class="cls-4" d="M222.13,189.81c-.05-.05-.09-.1-.14-.15-.01.07-.02.14-.04.21.06-.02.12-.04.17-.06Z"/>
  <path class="cls-5" d="M194.56,207.72c-24.06,11.48-45.24,35.79-69.18,53.42,19.62,6.27,42.83-.64,55.41-13.63,7.81-8.06,15.75-15.83,23.72-23.54-4.05-4.27-7.23-9.33-9.55-15.19-.14-.35-.27-.71-.4-1.06Z"/>
</svg>